**ABCDEFGHIJKLMNOPQRSTUVWXYZabcdefghijklmnopqrstuvwxyz**************************
**PARASOLID !"#$%&'()*+,-./:;<=>?@[\]^_`{|}~0123456789**************************
**PART1;
MC=AMD64;
MC_MODEL=Intel64 Family 6 Model 183 Stepping 1, GenuineIntel;
MC_ID=unknown;
OS=Windows_NT;
OS_RELEASE=unknown;
FRU=Parasolid Version 35.1, build 251, 11- 4-2023;
APPL=SOLIDWORKS 2024-2024078;
SITE=;
USER=unknown;
FORMAT=text;
GUISE=transmit;
KEY=Kalýp;
FILE=Kalýp.x_t;
DATE=Sat Jul  6 13:22:24 2024;
**PART2;
SCH=SCH_3501251_35102;
USFLD_SIZE=0;
**PART3;
**END_OF_HEADER*****************************************************************
T51 : TRANSMIT FILE created by modeller version 350125123 SCH_3501251_35102_1300
6231 0 12 36 CCCI7 lattice222 0 CCCI4 mesh1006 0 I8 polyline1008 0 CCCCCCCDI5 ow
ner1040 0 CCCI16 boundary_lattice222 0 CCCI13 boundary_mesh1006 0 I17 boundary_p
olyline1008 0 CCCA16 index_map_offset0 0 1 dA9 index_map82 0 A17 node_id_index_m
ap82 0 A20 schema_embedding_map82 0 A5 child12 0 A14 lowest_node_id0 0 1 dA16 me
sh_offset_data206 0 Z1 1082 2 3 0 0 0 0 0 0 0 1e3 1e-8 0 4 0 1 0 1 1 5 0 6 7 8 0
 0 9 10 11 0 0 0 0 0 0 0 81 255 2 2 1038 12 1 13 0 0 0 0 14 70 11 CI9 list_type0
 0 1 uI10 notransmit0 0 1 lCCCDCCDI12 finger_index0 0 1 dI12 finger_block1012 0
 CZ3 0 4 T1 0 0 12 20 1 15 15 13 255 5 99 0 1 0 16 0 0 17 0 50 255 6 94 0 18 19
 0 0 +.0125 .00704 -.017 -1 0 1020425574104004e-31 1020425574104004e-31 0 1 30 2
55 7 373 0 10 20 0 0 +.01 .002 .015 0 1 0 29 255 8 649 0 11 21 0 .0011 .002 -.01
39 19 9 CCCCCCI5 frame230 0 CA5 owner12 0 Z9 33 0 1 17 0 22 0 V0 16 255 10 371 0
 ?23 0 24 7 0 0 1 18 255 11 647 0 25 0 26 8 ?1 17 255 25 0 27 28 29 11 30 31 0 3
2 +18 26 362 0 33 11 34 21 ?1 17 33 0 35 36 37 26 38 39 0 40 +18 34 161 0 41 26
 42 43 ?1 29 21 364 0 26 43 8 .01 .00314 .015 29 43 163 0 34 44 21 .0105 .00704
 -.015 29 44 75 0 45 46 43 .0125 0 .017 18 45 66 0 47 48 49 44 ?1 29 46 76 0 49
 50 44 -.0125 0 .017 18 49 67 0 51 45 52 46 ?1 29 50 77 0 52 53 46 -.0125 0 -.01
7 18 52 68 0 54 49 55 50 ?1 29 53 78 0 55 56 50 .0125 0 -.017 18 55 69 0 57 52 5
8 53 ?1 29 56 32 0 42 59 53 .0125 .00704 .017 18 42 30 0 60 34 61 56 ?1 29 59 29
 0 61 62 56 -.0125 .00704 .017 18 61 27 0 63 42 64 59 ?1 29 62 26 0 64 65 59 -.0
125 .00704 -.017 18 64 24 0 66 61 48 62 ?1 29 65 23 0 48 67 62 .0125 .00704 -.01
7 18 48 21 0 68 64 45 65 ?1 29 67 293 0 69 70 65 .0105 .00704 .015 18 69 226 0 7
1 72 73 67 ?1 29 70 294 0 73 74 67 -.0105 .00704 .015 18 73 228 0 75 69 76 70 ?1
 29 74 295 0 76 77 70 -.0105 .00704 -.015 18 76 230 0 78 73 79 74 ?1 29 77 297 0
 58 80 74 .0105 .002 .015 18 58 223 0 81 55 82 77 ?1 29 80 298 0 82 83 77 -.0105
 .002 .015 18 82 225 0 84 58 85 80 ?1 29 83 299 0 85 86 80 -.0105 .002 -.015 18
 85 227 0 87 82 72 83 ?1 29 86 300 0 72 88 83 .0105 .002 -.015 18 72 229 0 89 85
 69 86 ?1 29 88 555 0 79 90 86 -.01 .00314 .017 18 79 470 0 91 76 92 88 ?1 29 90
 556 0 92 93 88 -.01 .00314 .015 18 92 469 0 36 79 94 90 ?1 29 93 558 0 94 95 90
 .01 .00314 .017 18 94 464 0 37 92 96 93 ?1 29 95 559 0 96 97 93 -.01 .00704 .01
7 18 96 468 0 98 94 99 95 ?1 29 97 560 0 99 100 95 -.01 .00704 .015 18 99 476 0
 101 96 102 97 ?1 29 100 561 0 102 103 97 .01 .00704 .015 18 102 465 0 104 99 10
5 100 ?1 29 103 562 0 105 106 100 .01 .00704 .017 18 105 466 0 107 102 108 103 ?
1 29 106 755 0 109 110 103 -.0011 .002 -.015 18 109 708 0 111 112 113 106 ?1 29
 110 756 0 113 114 106 .0011 .002 -.015 18 113 707 0 28 109 115 110 ?1 29 114 75
8 0 115 116 110 -.0011 .002 -.0139 18 115 712 0 117 113 0 114 ?1 29 116 759 0 10
8 118 114 -.0011 .0031 -.015 18 108 711 0 119 105 120 116 ?1 29 118 760 0 120 12
1 116 .0011 .0031 -.015 18 120 710 0 122 108 123 118 ?1 29 121 761 0 123 124 118
 .0011 .0031 -.0139 18 123 709 0 125 120 112 121 ?1 29 124 762 0 112 0 121 -.001
1 .0031 -.0139 18 112 706 0 126 123 109 124 ?1 17 126 0 127 117 30 112 125 128 0
 129 -15 255 127 720 0 32 130 0 17 117 0 127 32 126 115 131 132 0 133 +17 30 0 1
27 126 32 123 25 31 0 29 -17 125 0 134 122 129 123 126 128 0 30 +16 128 696 0 ?1
25 135 136 137 0 0 1 17 129 0 134 125 119 112 138 136 0 131 +15 134 731 0 129 13
9 0 17 119 0 134 129 122 108 140 141 0 138 +17 138 0 142 111 131 108 129 136 0 1
43 -16 136 693 0 ?129 128 144 145 0 0 1 17 131 0 142 138 133 112 117 132 0 0 -15
 142 716 0 133 146 0 17 133 0 142 131 111 115 147 148 0 149 +16 132 684 0 ?117 1
50 31 151 0 0 1 16 150 426 0 ?104 152 132 153 0 0 1 16 31 688 0 ?25 132 154 155
 0 0 1 30 151 743 0 132 155 156 0 +-.0011 .0031 -.0139 0 -1 0 30 155 744 0 31 15
7 151 0 +.0011 .0031 -.0139 0 -1 0 30 156 554 0 39 151 158 0 +.01 .00314 .011963
25532013106 0 0 -1 16 39 405 0 ?33 159 152 156 0 0 1 30 158 552 0 159 156 153 0
 +-.01 .00314 .01196325532013106 0 0 1 16 159 412 0 ?160 161 39 158 0 0 1 30 153
 550 0 150 158 162 0 +.01 .00704 .01196325532013106 0 0 -1 30 162 548 0 152 153
 163 0 +-.01 .00704 .01196325532013106 0 0 1 16 152 422 0 ?98 39 150 162 0 0 1 3
0 163 540 0 161 162 164 0 +-.0125 .00314 .017 1 0 0 16 161 421 0 ?37 165 159 163
 0 0 1 30 164 539 0 165 163 166 0 +-.01 .00704 .017 0 1 0 16 165 415 0 ?167 168
 161 164 0 0 1 30 166 538 0 168 164 169 0 +.01 .00704 .017 0 -1 0 16 168 404 0 ?
170 171 165 166 0 0 1 31 255 169 292 0 172 166 173 0 +.007 .002 -.0115 0 1 0 0 0
 1 .0014 16 172 199 0 ?174 175 171 169 0 0 1 31 173 291 0 171 169 176 0 +.007 .0
0704 -.0115 0 1 0 0 0 1 .0014 16 171 220 0 ?177 172 168 173 0 0 1 31 176 290 0 1
78 173 179 0 +-.007 .002 -.0115 0 1 0 0 0 1 .0014 16 178 202 0 ?180 181 175 176
 0 0 1 31 179 289 0 175 176 182 0 +-.007 .00704 -.0115 0 1 0 0 0 1 .0014 16 175
 217 0 ?183 178 172 179 0 0 1 30 182 288 0 184 179 185 0 +.0105 .002 -.015 0 0 -
1 16 184 183 0 ?186 187 188 182 0 0 1 30 185 287 0 189 182 190 0 +-.0105 .002 -.
015 -1 0 0 16 189 195 0 ?191 192 187 185 187 187 1 30 190 286 0 192 185 193 0 +-
.0105 .002 -.015 0 0 1 16 192 191 0 ?194 195 189 190 0 0 1 30 193 285 0 195 190
 196 0 +-.0105 .002 .015 1 0 0 16 195 187 0 ?197 198 192 193 0 0 1 30 196 284 0
 181 193 199 0 +.0105 .00704 -.015 0 0 -1 16 181 205 0 ?41 200 178 196 0 0 1 30
 199 283 0 200 196 201 0 +-.0105 .00704 -.015 -1 0 0 16 200 208 0 ?202 203 181 1
99 0 0 1 30 201 282 0 203 199 204 0 +-.0105 .00704 -.015 0 0 1 16 203 211 0 ?205
 206 200 201 0 0 1 30 204 281 0 188 201 207 0 +-.0105 .00704 .015 1 0 0 16 188 2
14 0 ?208 184 206 204 206 206 1 30 207 280 0 209 204 210 0 +.0105 .002 .015 0 1
 0 16 209 190 0 ?211 212 213 207 0 0 1 30 210 279 0 213 207 214 0 +-.0105 .002 .
015 0 1 0 16 213 194 0 ?75 209 215 210 0 0 1 30 214 278 0 215 210 216 0 +-.0105
 .002 -.015 0 1 0 16 215 198 0 ?78 213 198 214 0 0 1 30 216 277 0 198 214 217 0
 +.0105 .002 -.015 0 1 0 16 198 186 0 ?218 215 195 216 0 0 1 30 217 7 0 219 216
 220 0 +.0125 .00704 -.017 -1020425574104004e-31 0 -1 16 219 5 0 ?221 222 223 21
7 0 0 1 30 220 11 0 222 217 224 0 +-.0125 .00704 -.017 -1 0 0 16 222 9 0 ?66 225
 219 220 0 0 1 30 224 15 0 225 220 226 0 +-.0125 .00704 -.017 1020425574104004e-
31 0 1 16 225 13 0 ?63 227 222 224 0 0 1 30 226 19 0 228 224 229 0 +-.0125 .0070
4 .017 1 0 0 16 228 17 0 ?230 231 227 226 227 227 1 30 229 74 0 212 226 232 0 +.
0125 0 -.017 -1020425574104004e-31 0 -1 16 212 62 0 ?233 234 209 229 0 0 1 30 23
2 73 0 234 229 235 0 +-.0125 0 -.017 -1 0 0 16 234 58 0 ?54 236 212 232 0 0 1 30
 235 72 0 236 232 237 0 +-.0125 0 -.017 1020425574104004e-31 0 1 16 236 54 0 ?51
 223 234 235 0 0 1 30 237 71 0 223 235 238 0 +-.0125 0 .017 1 0 0 16 223 50 0 ?4
7 219 236 237 0 0 1 30 238 95 0 231 237 239 0 +.0125 .00704 .017 0 -1 0 16 231 7
9 0 ?240 241 228 238 0 0 1 30 239 96 0 241 238 242 0 +-.0125 .00704 .017 0 -1 0
 16 241 80 0 ?243 244 231 239 0 0 1 30 242 97 0 244 239 245 0 +-.0125 .00704 -.0
17 0 -1 0 16 244 81 0 ?246 247 241 242 0 0 1 30 245 98 0 247 242 248 0 +.0125 .0
0704 -.017 0 -1 0 16 247 82 0 ?249 250 244 245 0 0 1 30 248 368 0 250 245 20 0 +
-.0105 .00314 .015 -1 0 0 16 250 366 0 ?36 24 247 248 0 0 1 30 20 370 0 24 248 7
 0 +-.01 .002 .015 0 -1 0 16 24 369 0 ?251 10 250 20 0 0 1 17 251 0 252 253 208
 92 101 24 0 0 +15 252 238 0 253 254 0 17 253 0 252 23 251 26 36 250 0 0 -17 208
 0 252 251 75 99 255 188 0 0 +17 101 0 256 98 257 99 251 24 0 258 -15 256 491 0
 257 259 0 17 98 0 256 91 101 96 258 152 0 167 +17 257 0 256 101 91 92 160 159 0
 251 -17 258 0 260 255 230 99 98 152 0 208 -15 260 386 0 261 262 0 17 255 0 260
 263 258 73 208 188 0 0 -17 230 0 260 258 63 96 264 228 0 0 +17 63 0 260 230 66
 61 265 225 0 266 +17 264 0 267 243 167 61 230 228 0 0 -15 267 392 0 268 269 0 1
7 243 0 267 47 264 49 266 241 0 270 +17 167 0 267 264 271 96 91 165 0 230 +17 27
1 0 267 167 170 79 37 161 0 0 -17 91 0 256 257 98 79 167 165 0 160 -17 160 0 35
 37 36 79 257 159 0 271 +15 35 498 0 37 272 0 17 37 0 35 33 160 94 271 161 0 38
 +17 36 0 35 160 33 92 253 250 0 257 +17 38 0 273 107 40 94 33 39 0 170 -15 273
 483 0 104 274 0 17 107 0 273 104 38 105 170 168 0 261 -17 40 0 273 38 104 26 23
 10 0 253 -17 170 0 267 271 268 94 107 168 0 0 +17 268 0 267 170 275 105 60 227
 0 0 -17 275 0 267 268 47 42 240 231 0 276 -17 60 0 260 221 261 42 268 227 0 275
 +16 227 381 0 ?60 228 225 226 228 228 1 17 221 0 260 66 60 48 276 219 0 277 +17
 261 0 260 60 278 105 104 150 0 268 -17 278 0 260 261 279 102 71 206 0 0 -17 104
 0 273 40 107 102 261 150 0 23 +17 23 0 252 71 253 102 40 10 0 278 +17 71 0 252
 81 23 69 278 206 0 211 +17 81 0 252 280 71 58 211 209 0 281 -16 206 360 0 ?71 1
88 203 204 188 188 1 17 211 0 282 41 281 69 81 209 0 279 +15 282 234 0 41 283 0
 17 41 0 282 89 211 34 279 181 0 218 +17 281 0 282 211 89 58 186 184 0 197 -17 2
79 0 260 278 284 69 41 181 0 0 -17 284 0 260 279 263 34 202 200 0 0 -17 263 0 26
0 284 255 76 205 203 0 0 -17 202 0 285 286 218 76 284 200 0 263 +15 285 671 0 14
3 16 0 17 286 0 285 287 202 85 78 215 0 288 -17 218 0 285 202 289 34 89 198 0 28
4 +17 289 0 285 218 290 72 191 189 0 186 -17 89 0 282 281 41 72 218 198 0 289 -1
7 290 0 285 289 140 113 291 154 0 191 +17 191 0 292 293 186 113 289 189 0 0 +17
 186 0 292 191 197 72 281 184 0 0 +15 292 251 0 149 294 0 17 197 0 292 186 194 5
8 280 195 0 0 +17 194 0 292 197 87 82 288 192 0 280 +17 280 0 252 75 81 82 197 1
95 0 0 -17 75 0 252 208 280 73 84 213 0 205 +17 84 0 295 288 205 82 75 213 0 194
 -17 205 0 295 84 78 73 263 203 0 255 +15 295 242 0 205 296 0 17 78 0 295 205 28
8 76 286 215 0 202 +17 288 0 295 78 84 85 194 192 0 0 -14 255 296 239 297 ?298 2
54 295 5 299 -0 0 298 254 22 81 1 297 1040 300 296 301 0 0 302 303 14 298 257 30
2 ?304 296 305 5 306 +0 0 304 296 22 14 254 235 307 ?296 283 252 5 308 -0 0 296
 283 22 50 299 271 0 296 308 309 0 +-.0105 .002 -.015 -1 0 0 0 0 1 13 22 34 0 0
 0 0 0 0 9 16 14 16 673 310 ?294 0 285 5 309 -0 0 294 0 22 81 1 310 1046 300 16
 311 0 307 312 313 14 294 658 312 ?18 16 314 5 315 +0 0 18 16 22 50 309 270 0 16
 299 316 0 +-.0105 .002 -.015 0 0 -1 -1 0 0 50 316 269 0 283 309 317 0 +.0105 .0
02 -.015 1 0 0 0 0 -1 14 283 231 318 ?254 319 282 5 316 -0 0 254 319 22 50 317 3
 0 262 316 320 0 +0 .00704 0 0 1 0 0 0 1 14 262 1 321 ?319 269 260 5 317 +322 32
3 319 269 22 50 320 70 0 319 317 324 0 +0 0 0 0 1 0 0 0 1 14 319 48 325 ?283 262
 326 5 320 -0 0 283 262 22 50 324 91 0 269 320 327 0 +-.0125 .00704 .017 0 0 -1
 -1 0 0 14 269 84 328 ?262 329 267 5 324 -0 0 262 329 22 50 327 92 0 329 324 19
 0 +-.0125 .00704 -.017 1 0 -1020425574104004e-31 -1020425574104004e-31 0 -1 14
 329 86 330 ?269 331 332 5 327 -0 0 269 331 22 50 19 93 0 331 327 6 0 +-.0125 .0
0704 -.017 0 0 1 1 0 0 14 331 88 333 ?329 18 334 5 19 -0 0 329 18 22 81 1 333 10
60 300 331 335 0 330 336 337 14 18 90 336 ?331 294 338 5 6 -0 0 331 294 22 15 33
4 87 0 54 331 0 17 54 0 334 339 249 52 57 234 0 246 +17 339 0 334 68 54 64 246 2
44 0 265 -17 249 0 334 54 68 55 277 247 0 233 +17 57 0 326 340 341 55 54 234 0 2
49 -17 246 0 332 51 265 52 339 244 0 341 +15 332 85 0 51 329 0 17 51 0 332 266 2
46 49 341 236 0 243 +17 265 0 332 246 266 64 63 225 0 0 -17 341 0 326 57 270 52
 51 236 0 0 -15 326 49 0 340 319 0 17 270 0 326 341 340 49 47 223 0 0 -17 340 0
 326 270 57 45 233 212 0 0 -17 47 0 267 275 243 45 270 223 0 240 +17 240 0 338 2
33 276 45 275 231 0 340 +15 338 89 0 233 18 0 17 233 0 338 277 240 55 340 212 0
 0 +17 276 0 338 240 277 42 221 219 0 0 -17 277 0 338 276 233 48 249 247 0 0 -17
 266 0 332 265 51 61 243 241 0 264 -17 68 0 334 249 339 48 66 222 0 221 -17 66 0
 260 63 221 64 68 222 0 339 +81 1 336 1062 300 18 342 0 333 343 344 80 7 CCCCCDI
12 legal_owners0 16 1 lCZ1 300 345 346 9000 1 1 1 1 1 1 1 1 0 FFFFTFTFFFFFFFFF1
 81 3 342 1061 347 18 348 336 335 349 350 0 0 81 1 343 1064 300 272 349 0 336 35
1 352 82 255 1 344 -1321402153 14 272 496 343 ?146 259 35 5 353 +0 0 146 259 22
 81 3 349 1063 347 272 354 343 342 355 356 0 0 81 1 351 1066 300 259 355 0 343 3
57 358 82 1 352 -1208418083 14 259 488 351 ?272 274 256 5 359 -0 0 272 274 22 81
 3 355 1065 347 259 360 351 349 361 362 0 0 81 1 357 1068 300 274 361 0 351 363
 364 82 1 358 -1207500579 14 274 480 357 ?259 323 273 5 365 -0 0 259 323 22 81 3
 361 1067 347 274 366 357 355 367 368 0 0 81 1 363 1070 300 323 367 0 357 369 37
0 82 1 364 -1206517539 14 323 151 363 ?274 322 371 5 317 +262 322 274 322 22 81
 3 367 1069 347 323 372 363 361 373 374 0 0 81 1 369 1072 300 322 373 0 363 375
 376 82 1 370 -1257045798 14 322 158 369 ?323 304 377 5 317 +323 262 323 304 22
 81 3 373 1071 347 322 378 369 367 379 380 0 0 81 1 375 1074 300 304 379 0 369 3
81 382 82 1 376 -1256455974 14 304 262 375 ?322 298 383 5 384 +0 0 322 298 22 81
 3 379 1073 347 304 385 375 373 386 387 0 0 81 1 381 1076 300 146 386 0 375 388
 389 82 1 382 -1273495334 14 146 713 381 ?130 272 142 5 390 -0 0 130 272 22 81 3
 386 1075 347 146 391 381 379 392 393 0 0 81 1 388 1078 300 130 392 0 381 394 39
5 82 1 389 -1172963104 14 130 717 388 ?396 146 127 5 397 -0 0 396 146 22 81 3 39
2 1077 347 130 398 388 386 399 400 0 0 81 1 394 1080 300 396 399 0 388 401 402 8
2 1 395 -1173225248 14 396 721 394 ?139 130 27 5 403 -0 0 139 130 22 81 3 399 10
79 347 396 404 394 392 405 406 0 0 81 1 401 1082 300 139 405 0 394 0 407 82 1 40
2 -1173487392 14 139 729 401 ?0 396 134 5 408 +0 0 0 396 22 81 3 405 1081 347 13
9 409 401 399 0 410 0 0 82 1 407 -1180303136 80 3 347 411 412 9000 0 0 0 0 3 5 0
 0 0 FFFFTFFFFFFFFFFF1 1 1 81 1 409 970 413 139 414 405 404 0 415 82 6 410 0 156
3665310 31117198 0 0 0 80 1 413 416 417 8015 0 0 0 0 3 5 0 0 0 FFFFTFFFFFFFFFFF2
 81 1 414 969 418 139 0 409 419 0 420 81 1 404 968 413 396 419 399 398 409 421 8
3 255 1 415 0 81 1 419 967 418 396 0 404 422 414 423 81 1 398 966 413 130 422 39
2 391 404 424 83 1 421 0 81 1 422 965 418 130 0 398 425 419 426 81 1 391 964 413
 146 425 386 354 398 427 83 1 424 0 81 1 425 963 418 146 0 391 428 422 429 81 1
 354 962 413 272 428 349 360 391 430 83 1 427 0 81 1 428 961 418 272 0 354 431 4
25 432 81 1 360 960 413 259 431 355 366 354 433 83 1 430 0 81 1 431 959 418 259
 0 360 434 428 435 81 1 366 958 413 274 434 361 372 360 436 83 1 433 0 81 1 434
 957 418 274 0 366 437 431 438 81 1 372 956 413 323 437 367 378 366 439 83 1 436
 0 81 1 437 955 418 323 0 372 440 434 441 81 1 378 954 413 322 440 373 385 372 4
42 83 1 439 0 81 1 440 953 418 322 0 378 443 437 444 81 1 385 952 413 304 443 37
9 445 378 446 83 1 442 0 81 1 443 951 418 304 0 385 447 440 448 81 1 445 950 413
 298 447 449 450 385 451 83 1 446 0 81 1 447 949 418 298 0 445 452 443 453 81 3
 449 1041 347 298 445 302 301 454 455 0 0 81 1 450 948 413 296 452 301 456 445 4
57 83 1 451 0 81 1 452 947 418 296 0 450 458 447 459 81 3 301 1039 347 296 450 2
97 0 449 460 0 0 81 1 456 946 413 254 458 454 461 450 462 83 1 457 0 81 1 458 94
5 418 254 0 456 463 452 464 81 3 454 1043 347 254 456 307 449 311 465 0 0 81 1 4
61 944 413 283 463 466 467 456 468 83 1 462 0 81 1 463 943 418 283 0 461 469 458
 470 81 3 466 1049 347 283 461 318 471 472 473 0 0 81 1 467 942 413 319 469 474
 475 461 476 83 1 468 0 81 1 469 941 418 319 0 467 477 463 478 81 3 474 1053 347
 319 467 325 472 479 480 0 0 81 1 475 940 413 262 477 472 481 467 482 83 1 476 0
 81 1 477 939 418 262 0 475 483 469 484 81 3 472 1051 347 262 475 321 466 474 48
5 0 0 81 1 481 938 413 269 483 479 486 475 487 83 1 482 0 81 1 483 937 418 269 0
 481 488 477 489 81 3 479 1055 347 269 481 328 474 490 491 0 0 81 1 486 936 413
 329 488 490 492 481 493 83 1 487 0 81 1 488 935 418 329 0 486 494 483 495 81 3
 490 1057 347 329 486 330 479 335 496 0 0 81 1 492 934 413 331 494 335 348 486 4
97 83 1 493 0 81 1 494 933 418 331 0 492 498 488 499 81 3 335 1059 347 331 492 3
33 490 342 500 0 0 81 1 348 932 413 18 498 342 501 492 502 83 1 497 0 81 1 498 9
31 418 18 0 348 503 494 504 81 1 501 930 413 294 503 471 505 348 506 83 1 502 0
 81 1 503 929 418 294 0 501 507 498 508 81 3 471 1047 347 294 501 312 311 466 50
9 0 0 81 1 505 928 413 16 507 311 0 501 510 83 1 506 0 81 1 507 927 418 16 0 505
 0 503 511 81 3 311 1045 347 16 505 310 454 471 512 0 0 83 1 510 0 82 6 512 0 15
63665310 31117198 0 0 0 80 1 418 0 513 8001 0 0 0 0 3 5 0 0 0 FFFFTFTFFFFFFFFF2
 83 3 511 .792156862745098 .819607843137255 .933333333333333 79 255 15 513 SDL/T
YSA_COLOUR81 1 312 1048 300 294 471 0 310 318 514 82 6 509 0 1563665310 31117198
 0 0 0 81 1 318 1050 300 283 466 0 312 321 515 82 1 514 -1160511264 81 1 321 105
2 300 262 472 0 318 325 516 82 1 515 -1282146086 81 1 325 1054 300 319 474 0 321
 328 517 82 1 516 -1328742179 81 1 328 1056 300 269 479 0 325 330 518 82 1 517 -
1323106089 81 1 330 1058 300 329 490 0 328 333 519 82 1 518 -1322188579 82 1 519
 -1321926441 83 3 508 .792156862745098 .819607843137255 .933333333333333 83 3 50
4 .792156862745098 .819607843137255 .933333333333333 82 6 500 0 1563442940 31117
198 0 0 0 83 3 499 .792156862745098 .819607843137255 .933333333333333 82 6 496 0
 1563442940 31117198 0 0 0 83 3 495 .792156862745098 .819607843137255 .933333333
333333 82 6 491 0 1563603255 31117198 0 0 0 83 3 489 .792156862745098 .819607843
137255 .933333333333333 82 6 485 0 1563603255 31117198 0 0 0 83 3 484 .792156862
745098 .819607843137255 .933333333333333 82 6 480 0 1563442940 31117198 0 0 0 83
 3 478 .792156862745098 .819607843137255 .933333333333333 82 6 473 0 1563528022
 31117198 0 0 0 83 3 470 .792156862745098 .819607843137255 .933333333333333 81 1
 307 1044 300 254 454 0 302 310 520 82 6 465 0 1563603255 31117198 0 0 0 81 1 30
2 1042 300 298 449 0 297 307 521 82 1 520 -1282539299 82 1 521 -1277427494 83 3
 464 .792156862745098 .819607843137255 .933333333333333 82 6 460 0 1563528022 31
117198 0 0 0 83 3 459 .792156862745098 .819607843137255 .933333333333333 82 6 45
5 0 1563528022 31117198 0 0 0 83 3 453 .792156862745098 .819607843137255 .933333
333333333 83 3 448 .792156862745098 .819607843137255 .933333333333333 83 3 444 .
792156862745098 .819607843137255 .933333333333333 83 3 441 .792156862745098 .819
607843137255 .933333333333333 83 3 438 .792156862745098 .819607843137255 .933333
333333333 83 3 435 .792156862745098 .819607843137255 .933333333333333 83 3 432 .
792156862745098 .819607843137255 .933333333333333 83 3 429 .792156862745098 .819
607843137255 .933333333333333 83 3 426 .792156862745098 .819607843137255 .933333
333333333 83 3 423 .792156862745098 .819607843137255 .933333333333333 83 3 420 .
792156862745098 .819607843137255 .933333333333333 79 21 417 SDL/TYSA_TRANSLUCENC
Y79 18 412 DOWNSTREAM_FACE_ID50 408 742 0 139 0 403 0 +0 .0031 0 0 1 0 0 0 1 50
 403 739 0 396 408 397 0 +.0011 .0031 -.015 -1 0 -197127667724637e-30 -197127667
724637e-30 0 1 50 397 738 0 130 403 390 0 +-.0011 .0031 -.0139 0 0 -1 -1 0 0 50
 390 737 0 146 397 353 0 +-.0011 .0031 -.015 1 0 -1557308575024635e-29 -15573085
75024635e-29 0 -1 50 353 537 0 272 390 359 0 +0 .00314 0 0 1 0 0 0 1 50 359 534
 0 259 353 365 0 +-.01 .00314 .01196325532013106 -1 0 0 0 0 1 50 365 532 0 274 3
59 384 0 +.01 .00314 .01196325532013106 1 0 0 0 0 -1 51 255 384 276 0 304 365 30
6 0 +.007 .002 -.0115 0 1 0 .0014 0 0 1 51 306 275 0 298 384 315 0 +-.007 .002 -
.0115 0 1 0 .0014 0 0 1 50 315 274 0 294 306 308 0 +0 .002 0 0 1 0 0 0 1 50 308
 272 0 254 315 299 0 +-.0105 .002 .015 0 0 1 1 0 0 82 6 406 0 1563665310 3111719
8 0 0 0 15 27 724 0 28 396 0 17 28 0 27 291 25 113 293 144 0 290 +17 291 0 27 29
 28 120 290 154 0 140 -17 293 0 292 149 191 11 28 144 0 0 -16 144 685 0 ?28 136
 522 523 0 0 1 16 522 681 0 ?32 144 148 524 0 0 1 30 523 748 0 144 524 525 0 +.0
011 .002 -.015 197127667724637e-30 0 -1 30 524 749 0 522 526 523 0 +-.0011 .002
 -.0139 1 0 0 30 525 746 0 527 523 157 0 +-.0011 .0031 -.015 0 -1 0 16 527 680 0
 ?111 154 141 525 0 0 1 30 157 745 0 154 525 155 0 +.0011 .0031 -.015 0 -1 0 16
 154 692 0 ?290 31 527 157 0 0 1 17 111 0 142 133 138 109 143 527 0 147 +16 141
 702 0 ?119 527 135 528 0 0 1 16 135 699 0 ?122 141 128 529 0 0 1 30 528 751 0 1
41 529 526 0 +-.0011 .0031 -.015 -1 0 0 30 529 752 0 135 137 528 0 +.0011 .0031
 -.015 197127667724637e-30 0 -1 30 526 750 0 148 528 524 0 +-.0011 .002 -.015 15
57308575024635e-29 0 1 16 148 677 0 ?133 522 0 526 0 0 1 30 137 753 0 128 145 52
9 0 +-.0011 .0031 -.0139 1 0 0 30 145 754 0 136 0 137 0 +-.0011 .0031 -.015 1557
308575024635e-29 0 1 17 122 0 134 119 125 120 29 135 0 291 +17 29 0 27 25 291 12
3 122 135 0 0 -17 143 0 285 140 287 108 111 527 0 0 -17 147 0 292 87 149 109 133
 148 0 287 -17 87 0 292 194 147 85 287 187 0 286 +17 149 0 292 147 293 115 32 52
2 0 0 -17 287 0 285 143 286 109 87 187 0 0 -16 187 645 0 ?87 189 184 185 189 189
 1 17 32 0 127 30 117 11 149 522 0 293 +17 140 0 285 290 143 120 119 141 0 0 -82
 6 400 0 1563665310 31117198 0 0 0 82 6 393 0 1563665310 31117198 0 0 0 82 6 387
 0 1563528022 31117198 0 0 0 15 383 265 0 174 304 530 17 174 0 383 174 174 0 531
 172 0 0 +15 530 266 0 532 304 0 17 532 0 530 532 532 0 177 171 0 0 -17 177 0 37
1 177 177 0 532 171 0 0 +15 371 148 0 177 323 0 17 531 0 314 531 531 0 174 172 0
 0 -15 314 249 0 531 294 533 15 533 250 0 534 294 292 17 534 0 533 534 534 0 180
 178 0 0 -17 180 0 305 180 180 0 534 178 0 0 +15 305 260 0 180 298 535 15 535 26
1 0 536 298 0 17 536 0 535 536 536 0 183 175 0 0 -17 183 0 377 183 183 0 536 175
 0 0 +15 377 155 0 183 322 0 82 6 380 0 1563528022 31117198 0 0 0 82 6 374 0 156
3528022 31117198 0 0 0 82 6 368 0 1563603255 31117198 0 0 0 82 6 362 0 156360325
5 31117198 0 0 0 82 6 356 0 1563603255 31117198 0 0 0 82 6 350 0 1563442940 3111
7198 0 0 0 79 14 346 SWEntUnchanged82 1 337 -1321664297 82 1 313 -1159135008 82
 1 303 -1282408230 19 17 100 0 1 0 9 5 0 S0 74 4 CI16 index_map_offset0 0 1 dCCZ
20 15 12 0 0 405 401 537 538 539 540 541 542 13 414 409 2 0 0 0 0 0 0 0 0 81 2 5
37 764 543 1 0 538 0 0 0 544 81 2 538 774 545 1 537 539 0 0 0 546 81 2 539 775 5
47 1 538 540 0 0 548 0 81 1 540 782 549 1 539 541 0 0 550 81 2 541 783 551 1 540
 542 0 0 0 0 81 2 542 807 552 1 541 13 0 0 553 0 81 2 13 926 554 1 542 2 0 0 0 5
55 80 2 554 556 557 9000 0 0 0 0 3 5 0 0 0 FFTFFFFFFFFFFFFF9 1 82 1 555 1 79 24
 557 BODY_IN_LIGHTWEIGHT_PERM80 2 552 558 559 8004 0 0 0 0 3 5 0 0 0 FFTFFFFFFFF
FFFFF2 3 83 1 553 1 79 16 559 SDL/TYSA_DENSITY80 2 551 560 561 9000 0 0 0 0 3 5
 0 0 0 FFTFFFFFFFFFFFFF9 1 79 16 561 BODY_RECIPE_200180 1 549 562 563 9000 1 1 1
 1 1 1 1 1 0 FFTFFFFFFFFFFFFF1 82 1 550 897227 79 10 563 BODY_MATCH80 2 547 564
 565 9000 0 0 0 0 3 5 0 0 0 FFTFTTTFFTFFFFFF10 10 98 255 21 548 89 252 107 115 1
01 107 108 105 107 45 69 107 115 116 114 252 122 121 111 110 50 79 23 565 SWIMPL
ICITBODYNAME_ID_U80 2 545 566 567 9000 0 0 0 0 3 5 0 0 0 FFTFFFFFFFFFFFFF9 1 82
 1 546 94 79 30 567 LAST_BODY_MODIFYING_FEATURE_ID80 2 543 568 569 9000 0 0 0 0
 3 5 0 0 0 FFTFFFFFFFFFFFFF9 1 82 1 544 198 79 19 569 ENT_TIME_STAMP_200180 2 12
 570 571 9000 0 0 0 0 3 5 0 0 0 FFTFFFFFFFFFFFFF9 1 82 1 14 104 79 12 571 ATOM_I
D_20011 0 
