**ABCDEFGHIJKLMNOPQRSTUVWXYZabcdefghijklmnopqrstuvwxyz**************************
**PARASOLID !"#$%&'()*+,-./:;<=>?@[\]^_`{|}~0123456789**************************
**PART1;
MC=AMD64;
MC_MODEL=Intel64 Family 6 Model 183 Stepping 1, GenuineIntel;
MC_ID=unknown;
OS=Windows_NT;
OS_RELEASE=unknown;
FRU=Parasolid Version 35.1, build 251, 11- 4-2023;
APPL=SOLIDWORKS 2024-2024078;
SITE=;
USER=unknown;
FORMAT=text;
GUISE=transmit;
KEY=Maça2;
FILE=Maça2.x_t;
DATE=Sat Jul  6 14:47:28 2024;
**PART2;
SCH=SCH_3501251_35102;
USFLD_SIZE=0;
**PART3;
**END_OF_HEADER*****************************************************************
T51 : TRANSMIT FILE created by modeller version 350125123 SCH_3501251_35102_1300
6231 0 12 36 CCCI7 lattice222 0 CCCI4 mesh1006 0 I8 polyline1008 0 CCCCCCCDI5 ow
ner1040 0 CCCI16 boundary_lattice222 0 CCCI13 boundary_mesh1006 0 I17 boundary_p
olyline1008 0 CCCA16 index_map_offset0 0 1 dA9 index_map82 0 A17 node_id_index_m
ap82 0 A20 schema_embedding_map82 0 A5 child12 0 A14 lowest_node_id0 0 1 dA16 me
sh_offset_data206 0 Z1 643 2 3 0 0 0 0 0 0 0 1e3 1e-8 0 4 0 1 0 1 1 5 0 6 7 8 0
 0 9 10 11 0 0 0 0 0 0 0 81 255 2 2 611 12 1 13 0 0 0 0 14 70 11 CI9 list_type0
 0 1 uI10 notransmit0 0 1 lCCCDCCDI12 finger_index0 0 1 dI12 finger_block1012 0
 CZ3 0 4 T1 0 0 11 20 1 15 15 13 255 5 34 0 1 0 16 0 0 17 0 51 255 6 63 0 18 19
 0 0 +-.007 .00304 -.0115 0 1 0 .0014 0 0 1 31 255 7 65 0 20 21 0 0 +-.007 .0030
4 -.0115 0 1 0 0 0 1 .0014 29 255 8 237 0 11 22 0 -.0105 .00304 -.015 19 9 CCCCC
CI5 frame230 0 CA5 owner12 0 Z9 38 0 1 17 0 23 0 V0 16 255 10 40 0 ?24 0 20 21 0
 0 1 18 255 11 235 0 25 0 26 8 ?1 17 255 25 0 27 28 29 11 30 31 0 32 +18 26 135
 0 33 11 34 22 ?1 17 33 0 35 36 37 26 38 39 0 40 +18 34 134 0 37 26 41 42 ?1 29
 22 187 0 26 42 8 -.0125 .00104 -.009 29 42 188 0 34 43 22 .0125 .00104 -.009 29
 43 189 0 41 44 42 .0125 .00104 -.017 18 41 133 0 45 34 46 43 ?1 29 44 190 0 46
 47 43 -.0125 .00104 -.017 18 46 130 0 48 41 49 44 ?1 29 47 383 0 49 50 44 -.002
 .00704 -.015 18 49 293 0 51 46 52 47 ?1 29 50 384 0 52 53 47 .0105 .00704 -.015
 18 52 286 0 54 49 55 50 ?1 29 53 385 0 55 56 50 .0125 .00704 -.017 18 55 280 0
 57 52 58 53 ?1 29 56 386 0 58 59 53 .0125 .00704 -.009 18 58 284 0 60 55 61 56
 ?1 29 59 387 0 61 62 56 -.0125 .00704 -.009 18 61 283 0 63 58 64 59 ?1 29 62 38
8 0 64 65 59 -.0125 .00704 -.017 18 64 277 0 66 61 67 62 ?1 29 65 394 0 67 68 62
 .0105 .00304 -.015 18 67 292 0 28 64 69 65 ?1 29 68 395 0 69 70 65 .0105 .00304
 -.009 18 69 287 0 71 67 72 68 ?1 29 70 396 0 72 73 68 -.0105 .00304 -.009 18 72
 289 0 74 69 75 70 ?1 29 73 397 0 76 77 70 .0105 .00704 -.009 18 76 285 0 78 75
 79 73 ?1 29 77 398 0 79 80 73 -.0105 .00704 -.009 18 79 288 0 81 76 82 77 ?1 29
 80 399 0 75 83 77 -.0105 .00704 -.015 18 75 291 0 29 72 76 80 ?1 29 83 400 0 82
 84 80 .002 .00704 -.015 18 82 294 0 85 79 86 83 ?1 29 84 401 0 86 87 83 -.002 .
00704 -.017 18 86 296 0 88 82 89 84 ?1 29 87 402 0 89 0 84 .002 .00704 -.017 18
 89 295 0 90 86 0 87 ?1 17 90 0 91 88 85 89 92 93 0 94 +15 255 91 344 0 51 95 0
 17 88 0 91 51 90 86 94 96 0 97 -17 85 0 91 90 51 82 98 99 0 92 +17 92 0 100 101
 102 82 90 93 0 103 -16 93 276 0 ?90 104 96 105 0 0 1 17 94 0 106 107 108 89 88
 96 0 102 +15 106 147 0 66 109 0 17 107 0 106 110 94 55 102 111 0 112 -17 108 0
 106 94 66 86 113 114 0 0 -16 96 252 0 ?94 93 0 115 0 0 1 17 102 0 100 92 112 89
 107 111 0 0 +15 100 328 0 92 116 0 17 112 0 100 102 117 55 118 119 0 0 +16 111
 265 0 ?102 120 114 121 114 114 1 16 120 248 0 ?122 123 111 124 0 0 1 16 114 247
 0 ?113 111 125 121 111 111 1 30 255 121 365 0 111 126 124 0 +.0125 .00704 -.017
 -1 0 0 30 126 370 0 125 127 121 0 +.0105 .00304 0 0 0 -1 30 124 364 0 120 121 1
28 0 +-.0125 .00704 -.017 0 0 1 30 128 363 0 129 124 130 0 +-.0125 .00704 -.009
 1 0 0 16 129 249 0 ?131 119 123 128 123 123 1 30 130 362 0 119 128 132 0 +.0125
 .00704 -.009 0 0 -1 16 119 264 0 ?112 99 129 130 0 0 1 31 132 357 0 99 130 133
 0 +0 .00704 -.015 0 0 1 1 0 0 .002 16 99 275 0 ?85 134 119 132 0 0 1 31 133 220
 0 134 132 135 0 +.007 .01362 -.0115 0 1 0 0 0 1 .0014 16 134 200 0 ?136 137 99
 133 0 0 1 31 135 219 0 137 133 138 0 +.007 .00304 -.0115 0 1 0 0 0 1 .0014 16 1
37 199 0 ?139 140 134 135 0 0 1 30 138 182 0 141 135 142 0 +-.0125 .00104 -.009
 0 0 -1 16 141 117 0 ?36 143 140 138 0 0 1 30 142 181 0 143 138 144 0 +-.0125 .0
0104 -.017 1 0 0 16 143 120 0 ?45 145 141 142 0 0 1 30 144 180 0 145 142 146 0 +
.0125 .00104 -.009 0 0 1 16 145 123 0 ?37 39 143 144 0 0 1 30 146 179 0 39 144 1
47 0 +-.0125 .00104 -.009 -1 0 0 16 39 126 0 ?33 148 145 146 0 0 1 30 147 175 0
 140 146 149 0 +-.0125 .00304 -.009 -1 0 0 16 140 223 0 ?150 141 137 147 0 0 1 3
0 149 174 0 148 147 151 0 +-.0125 .00104 -.009 0 1 0 16 148 104 0 ?63 152 39 149
 0 0 1 30 151 173 0 152 149 153 0 +.0125 .00104 -.009 0 1 0 16 152 116 0 ?60 154
 148 151 0 0 1 30 153 172 0 154 151 155 0 +.0125 .00104 -.017 0 1 0 16 154 112 0
 ?57 156 152 153 0 0 1 30 155 171 0 156 153 21 0 +-.0125 .00104 -.017 0 1 0 16 1
56 108 0 ?66 20 154 155 0 0 1 31 21 64 0 10 155 7 0 +-.007 .01362 -.0115 0 1 0 0
 0 1 .0014 17 66 0 106 108 48 64 157 156 0 113 +16 20 100 0 ?158 10 156 7 0 0 1
 17 158 0 159 158 158 0 160 20 0 0 +15 159 80 0 158 18 161 17 160 0 162 160 160
 0 158 20 0 0 -15 162 161 0 160 16 163 14 255 16 244 164 ?18 0 162 5 165 -0 0 18
 0 23 15 163 193 0 166 16 167 17 166 0 163 166 166 0 139 137 0 0 -15 167 242 0 1
68 16 0 17 168 0 167 169 170 67 71 125 0 0 +17 169 0 167 171 168 11 28 172 0 0 -
17 170 0 167 168 171 69 150 140 0 0 -17 71 0 173 78 174 69 168 125 0 175 -16 125
 260 0 ?168 114 176 126 0 0 1 16 176 261 0 ?171 125 172 127 0 0 1 17 171 0 167 1
70 169 72 32 176 0 150 +16 172 271 0 ?28 176 177 178 0 0 1 30 127 371 0 176 178
 126 0 +-.0105 .00304 0 0 0 1 30 178 372 0 172 179 127 0 +0 .00304 -.015 1 0 0 3
0 179 373 0 180 181 178 0 +-.0105 .00704 -.015 0 0 1 16 180 267 0 ?81 177 182 17
9 0 0 1 30 181 374 0 177 183 179 0 +.0105 .00704 -.015 0 0 1 16 177 262 0 ?184 1
72 180 181 0 0 1 30 183 375 0 185 186 181 0 +.0105 .002 -.009 0 1 0 16 185 266 0
 ?78 187 188 183 0 0 1 30 186 376 0 188 189 183 0 +-.0105 .00704 -.009 0 -1 0 16
 188 268 0 ?74 185 104 186 0 0 1 30 189 377 0 182 190 186 0 +.0105 .002 -.015 0
 1 0 16 182 272 0 ?191 180 31 189 0 0 1 30 190 378 0 31 192 189 0 +-.0105 .00704
 -.015 0 -1 0 16 31 270 0 ?25 182 193 190 0 0 1 30 192 379 0 193 194 190 0 +.010
5 .00704 -.015 -1 0 0 16 193 273 0 ?103 31 187 192 187 187 1 30 194 380 0 104 10
5 192 0 +-.002 .00704 -.015 0 0 1 16 104 274 0 ?51 188 93 194 0 0 1 30 105 381 0
 93 115 194 0 -.002 .00704 -.015 0 0 1 31 115 382 0 96 0 105 0 +0 .00704 -.017 0
 0 1 1 0 0 .002 17 51 0 91 85 88 49 97 104 0 98 +17 97 0 195 113 196 86 51 104 0
 108 -17 98 0 27 29 103 49 85 99 0 196 -15 27 340 0 98 197 0 17 29 0 27 25 98 75
 196 187 0 30 +17 103 0 27 98 191 82 101 193 0 0 +17 196 0 195 97 198 49 29 187
 0 0 -15 195 300 0 97 199 0 17 198 0 195 196 131 75 81 180 0 0 -16 187 269 0 ?29
 193 185 192 193 193 1 17 131 0 195 198 122 79 200 129 0 0 +17 81 0 201 74 30 79
 198 180 0 202 +15 201 336 0 30 203 0 17 74 0 201 32 81 72 202 188 0 171 +17 30
 0 201 81 32 75 25 31 0 198 -17 202 0 204 200 150 79 74 188 0 131 -15 204 155 0
 60 205 0 17 200 0 204 40 202 61 131 129 0 122 -17 150 0 204 202 175 72 170 140
 0 0 +17 175 0 204 150 206 69 78 185 0 170 -17 206 0 204 175 60 76 117 123 0 0 -
17 78 0 173 54 71 76 175 185 0 184 +15 173 332 0 78 207 0 17 54 0 173 174 78 52
 184 177 0 191 -17 184 0 100 117 101 76 54 177 0 206 +17 117 0 100 112 184 58 20
6 123 0 118 +17 101 0 100 184 92 52 103 193 0 0 -16 123 263 0 ?117 129 120 128 1
29 129 1 17 118 0 208 209 57 58 112 119 0 0 -15 208 151 0 57 210 0 17 209 0 208
 211 118 34 60 152 0 38 -17 57 0 208 118 211 55 110 154 0 107 +17 211 0 208 57 2
09 41 37 145 0 0 -17 110 0 106 48 107 41 57 154 0 211 -17 48 0 106 66 110 46 45
 143 0 36 -17 45 0 35 37 36 41 48 143 0 110 +17 36 0 35 45 33 46 212 141 0 157 +
15 35 158 0 36 213 0 17 212 0 214 63 157 26 36 141 0 0 -17 157 0 214 212 215 46
 66 156 0 0 -15 214 143 0 63 216 0 17 215 0 214 157 63 64 122 120 0 0 -17 63 0 2
14 215 212 61 40 148 0 200 +17 122 0 195 131 113 61 215 120 0 0 +17 113 0 195 12
2 97 64 108 114 0 215 +17 40 0 204 38 200 26 63 148 0 212 -17 38 0 204 60 40 34
 33 39 0 0 -17 60 0 204 206 38 58 209 152 0 117 +14 216 140 217 ?109 218 214 5 2
19 -0 0 109 218 23 81 1 217 615 220 216 221 0 164 222 223 14 109 144 222 ?210 21
6 106 5 224 -0 0 210 216 23 14 218 45 225 ?216 18 226 5 19 +0 0 216 18 23 50 255
 219 165 0 216 224 19 0 +-.0125 .00104 -.009 1 0 0 0 0 -1 13 23 37 0 0 0 0 0 0 9
 16 50 224 166 0 109 227 219 0 +-.0125 .00104 -.017 0 0 1 1 0 0 50 19 61 0 218 2
19 6 0 +-.007 .01362 -.0115 0 1 0 0 0 1 50 227 167 0 210 228 224 0 +.0125 .00104
 -.009 -1 0 0 0 0 1 14 210 148 229 ?205 109 208 5 227 -0 0 205 109 23 50 228 168
 0 205 165 227 0 +-.0125 .00104 -.009 0 0 -1 -1 0 0 14 205 152 230 ?213 210 204
 5 228 -0 0 213 210 23 50 165 169 0 16 231 228 0 +0 .00304 0 0 -1 0 0 0 -1 50 23
1 170 0 213 232 165 0 +0 .00104 0 0 -1 0 0 0 -1 14 213 156 233 ?234 205 35 5 231
 +0 0 234 205 23 51 232 216 0 234 235 231 0 +.007 .00304 -.0115 0 1 0 .0014 0 0
 1 14 234 201 236 ?237 213 238 5 232 +0 0 237 213 23 50 235 218 0 237 239 232 0
 +.007 .01362 -.0115 0 1 0 0 0 1 14 237 210 240 ?199 234 241 5 235 +0 0 199 234
 23 50 239 351 0 116 242 235 0 +0 .00704 0 0 1 0 0 0 1 14 116 325 243 ?207 199 1
00 5 239 +199 199 207 199 23 50 242 353 0 203 244 239 0 +-.0105 .00704 -.015 -1
 0 0 0 0 1 14 203 333 245 ?197 207 201 5 242 -0 0 197 207 23 50 244 354 0 207 24
6 242 0 +.0105 .002 -.015 1 0 0 0 0 -1 14 207 329 247 ?203 116 173 5 244 -0 0 20
3 116 23 50 246 355 0 197 248 244 0 +0 0 -.015 0 0 1 1 0 0 14 197 337 249 ?95 20
3 27 5 246 +0 0 95 203 23 51 248 356 0 95 0 246 0 +0 .00704 -.015 0 0 1 .002 1 0
 0 14 95 341 250 ?0 197 91 5 248 -0 0 0 197 23 81 1 250 639 220 95 251 0 249 252
 253 80 7 CCCCCDI12 legal_owners0 16 1 lCZ1 220 254 255 9000 1 1 1 1 1 1 1 1 0 F
FFFTFTFFFFFFFFF1 81 3 251 638 256 95 257 250 258 259 260 0 0 81 1 249 637 220 19
7 258 0 247 250 261 81 1 252 641 220 199 259 0 250 262 263 82 255 1 253 14517536
75 14 199 297 252 ?116 237 195 5 239 +116 116 116 237 23 81 3 259 640 256 199 26
4 252 251 265 266 0 0 81 1 262 643 220 18 265 0 252 0 267 82 1 263 1450639563 14
 18 58 262 ?218 16 159 5 6 +0 0 218 16 23 81 3 265 642 256 18 268 262 259 0 269
 0 0 82 1 267 302448832 80 3 256 270 271 9000 0 0 0 0 3 5 0 0 0 FFFFTFFFFFFFFFFF
1 1 1 81 1 268 529 272 18 273 265 274 275 276 82 6 269 0 462515060 31117210 0 0
 0 80 1 272 277 278 8015 0 0 0 0 3 5 0 0 0 FFFFTFFFFFFFFFFF2 81 1 273 528 279 18
 0 268 280 281 282 81 1 274 527 272 16 280 283 0 268 284 81 1 275 531 272 218 28
1 285 268 286 287 83 255 1 276 0 81 1 281 530 279 218 0 275 273 288 289 81 3 285
 618 256 218 275 225 290 291 292 0 0 81 1 286 533 272 216 288 221 275 293 294 83
 1 287 0 81 1 288 532 279 216 0 286 281 295 296 81 3 221 614 256 216 286 217 283
 290 297 0 0 81 1 293 535 272 109 295 290 286 298 299 83 1 294 0 81 1 295 534 27
9 109 0 293 288 300 301 81 3 290 616 256 109 293 222 221 285 302 0 0 81 1 298 53
7 272 210 300 291 293 303 304 83 1 299 0 81 1 300 536 279 210 0 298 295 305 306
 81 3 291 620 256 210 298 229 285 307 308 0 0 81 1 303 539 272 205 305 307 298 3
09 310 83 1 304 0 81 1 305 538 279 205 0 303 300 311 312 81 3 307 622 256 205 30
3 230 291 313 314 0 0 81 1 309 541 272 213 311 313 303 315 316 83 1 310 0 81 1 3
11 540 279 213 0 309 305 317 318 81 3 313 624 256 213 309 233 307 319 320 0 0 81
 1 315 543 272 234 317 319 309 321 322 83 1 316 0 81 1 317 542 279 234 0 315 311
 323 324 81 3 319 626 256 234 315 236 313 325 326 0 0 81 1 321 545 272 237 323 3
25 315 264 327 83 1 322 0 81 1 323 544 279 237 0 321 317 328 329 81 3 325 628 25
6 237 321 240 319 330 331 0 0 81 1 264 547 272 199 328 259 321 332 333 83 1 327
 0 81 1 328 546 279 199 0 264 323 334 335 81 1 332 549 272 116 334 330 264 336 3
37 83 1 333 0 81 1 334 548 279 116 0 332 328 338 339 81 3 330 630 256 116 332 24
3 325 340 341 0 0 81 1 336 551 272 207 338 342 332 343 344 83 1 337 0 81 1 338 5
50 279 207 0 336 334 345 346 81 3 342 634 256 207 336 247 340 258 347 0 0 81 1 3
43 553 272 203 345 340 336 348 349 83 1 344 0 81 1 345 552 279 203 0 343 338 350
 351 81 3 340 632 256 203 343 245 330 342 352 0 0 81 1 348 555 272 197 350 258 3
43 257 353 83 1 349 0 81 1 350 554 279 197 0 348 345 354 355 81 3 258 636 256 19
7 348 249 342 251 356 0 0 81 1 257 557 272 95 354 251 348 0 357 83 1 353 0 81 1
 354 556 279 95 0 257 350 0 358 83 1 357 0 80 1 279 0 359 8001 0 0 0 0 3 5 0 0 0
 FFFFTFTFFFFFFFFF2 83 3 358 .792156862745098 .819607843137255 .933333333333333 7
9 255 15 359 SDL/TYSA_COLOUR82 6 356 0 584709120 31117210 0 0 0 83 3 355 .792156
862745098 .819607843137255 .933333333333333 81 1 245 633 220 203 340 0 243 247 3
60 82 6 352 0 -1126252545 31117209 0 0 0 81 1 243 631 220 116 330 0 240 245 361
 81 1 247 635 220 207 342 0 245 249 362 82 1 360 1451425995 82 1 362 1451032779
 81 1 240 629 220 237 325 0 236 243 363 82 1 361 1450901707 81 1 236 627 220 234
 319 0 233 240 364 82 1 363 1436811467 81 1 233 625 220 213 313 0 230 236 365 82
 1 364 1436418251 81 1 230 623 220 205 307 0 229 233 366 82 1 365 1433534667 81
 1 229 621 220 210 291 0 225 230 367 82 1 366 1433272523 81 1 225 619 220 218 28
5 0 222 229 368 82 1 367 1433010379 81 1 222 617 220 109 290 0 217 225 369 82 1
 368 300941504 82 1 369 1432813771 83 3 351 .792156862745098 .819607843137255 .9
33333333333333 82 6 347 0 -1126252545 31117209 0 0 0 83 3 346 .792156862745098 .
819607843137255 .933333333333333 82 6 341 0 584709120 31117210 0 0 0 83 3 339 .7
92156862745098 .819607843137255 .933333333333333 83 3 335 .792156862745098 .8196
07843137255 .933333333333333 82 6 331 0 584683913 31117210 0 0 0 83 3 329 .79215
6862745098 .819607843137255 .933333333333333 82 6 326 0 584683913 31117210 0 0 0
 83 3 324 .792156862745098 .819607843137255 .933333333333333 82 6 320 0 89110588
8 31117210 0 0 0 83 3 318 .792156862745098 .819607843137255 .933333333333333 82
 6 314 0 891105888 31117210 0 0 0 83 3 312 .792156862745098 .819607843137255 .93
3333333333333 82 6 308 0 891105888 31117210 0 0 0 83 3 306 .792156862745098 .819
607843137255 .933333333333333 82 6 302 0 891105888 31117210 0 0 0 83 3 301 .7921
56862745098 .819607843137255 .933333333333333 81 3 283 612 256 16 274 164 0 221
 370 0 0 82 6 297 0 891105888 31117210 0 0 0 81 1 164 613 220 16 283 0 0 217 371
 82 6 370 0 891105888 31117210 0 0 0 82 1 371 1459880139 83 3 296 .7921568627450
98 .819607843137255 .933333333333333 82 6 292 0 462515060 31117210 0 0 0 83 3 28
9 .792156862745098 .819607843137255 .933333333333333 81 1 280 526 279 16 0 274 0
 273 372 83 1 284 0 83 3 372 .792156862745098 .819607843137255 .933333333333333
 83 3 282 .792156862745098 .819607843137255 .933333333333333 79 21 278 SDL/TYSA_
TRANSLUCENCY79 18 271 DOWNSTREAM_FACE_ID82 6 266 0 584709120 31117210 0 0 0 82 1
 261 1451622603 82 6 260 0 584709120 31117210 0 0 0 79 14 255 SWEntUnchanged15 2
41 213 0 136 237 0 17 136 0 241 136 136 0 373 134 0 0 +17 373 0 374 373 373 0 13
6 134 0 0 -15 374 205 0 373 234 0 15 238 204 0 139 234 374 17 139 0 238 139 139
 0 166 137 0 0 +15 226 78 0 24 218 0 17 24 0 226 24 24 0 375 10 0 0 +17 375 0 16
1 375 375 0 24 10 0 0 -15 161 57 0 375 18 0 82 1 223 1432682699 17 37 0 35 33 45
 34 211 145 0 209 +17 174 0 173 71 54 67 191 182 0 168 -17 191 0 27 103 28 52 17
4 182 0 101 +17 28 0 27 191 25 67 169 172 0 174 +17 32 0 201 30 74 11 171 176 0
 169 -19 17 33 0 1 0 9 5 0 S0 74 4 CI16 index_map_offset0 0 1 dCCZ20 15 11 0 0 2
65 262 376 377 378 379 380 13 354 257 2 0 0 0 0 0 0 0 0 0 81 2 376 98 381 1 0 37
7 0 0 0 0 81 2 377 414 382 1 376 378 0 0 0 383 81 2 378 424 384 1 377 379 0 0 0
 385 81 2 379 425 386 1 378 380 0 0 387 0 81 1 380 440 388 1 379 13 0 0 389 81 2
 13 458 390 1 380 2 0 0 391 0 80 2 390 392 393 8004 0 0 0 0 3 5 0 0 0 FFTFFFFFFF
FFFFFF2 3 83 1 391 1 79 16 393 SDL/TYSA_DENSITY80 1 388 394 395 9000 1 1 1 1 1 1
 1 1 0 FFTFFFFFFFFFFFFF1 82 1 389 6033854 79 10 395 BODY_MATCH80 2 386 396 397 9
000 0 0 0 0 3 5 0 0 0 FFTFTTTFFTFFFFFF10 10 98 255 21 387 89 252 107 115 101 107
 108 105 107 45 69 107 115 116 114 252 122 121 111 110 50 79 23 397 SWIMPLICITBO
DYNAME_ID_U80 2 384 398 399 9000 0 0 0 0 3 5 0 0 0 FFTFFFFFFFFFFFFF9 1 82 1 385
 74 79 30 399 LAST_BODY_MODIFYING_FEATURE_ID80 2 382 400 401 9000 0 0 0 0 3 5 0
 0 0 FFTFFFFFFFFFFFFF9 1 82 1 383 187 79 19 401 ENT_TIME_STAMP_200180 2 381 402
 403 9000 0 0 0 0 3 5 0 0 0 FFTFFFFFFFFFFFFF9 1 79 16 403 BODY_RECIPE_200180 2 1
2 404 405 9000 0 0 0 0 3 5 0 0 0 FFTFFFFFFFFFFFFF9 1 82 1 14 108 79 12 405 ATOM_
ID_20011 0 
