  0
SECTION
  2
HEADER
  9
$ACADVER
  1
AC1015
  9
$ACADMAINTVER
 70
     6
  9
$DWGCODEPAGE
  3
ANSI_1254
  9
$INSBASE
 10
0.0
 20
0.0
 30
0.0
  9
$EXTMIN
 10
0.0
 20
0.0
 30
0.0
  9
$EXTMAX
 10
210.0
 20
297.0
 30
0.0
  9
$LIMMIN
 10
0.0
 20
0.0
  9
$LIMMAX
 10
210.0
 20
297.0
  9
$ORTHOMODE
 70
     0
  9
$REGENMODE
 70
     1
  9
$FILLMODE
 70
     1
  9
$QTEXTMODE
 70
     0
  9
$MIRRTEXT
 70
     1
  9
$LTSCALE
 40
1.0
  9
$ATTMODE
 70
     1
  9
$TEXTSIZE
 40
3.175
  9
$TRACEWID
 40
1.0
  9
$TEXTSTYLE
  7
Standard
  9
$CLAYER
  8
0
  9
$CELTYPE
  6
ByLayer
  9
$CECOLOR
 62
   256
  9
$CELTSCALE
 40
1.0
  9
$DISPSILH
 70
     0
  9
$DIMSCALE
 40
1.0
  9
$DIMASZ
 40
3.302
  9
$DIMEXO
 40
1.27
  9
$DIMDLI
 40
3.75
  9
$DIMRND
 40
0.0
  9
$DIMDLE
 40
0.0
  9
$DIMEXE
 40
3.175
  9
$DIMTP
 40
0.0
  9
$DIMTM
 40
0.0
  9
$DIMTXT
 40
3.175
  9
$DIMCEN
 40
2.5
  9
$DIMTSZ
 40
0.0
  9
$DIMTOL
 70
     0
  9
$DIMLIM
 70
     0
  9
$DIMTIH
 70
     1
  9
$DIMTOH
 70
     1
  9
$DIMSE1
 70
     0
  9
$DIMSE2
 70
     0
  9
$DIMTAD
 70
     0
  9
$DIMZIN
 70
     1
  9
$DIMBLK
  1

  9
$DIMASO
 70
     1
  9
$DIMSHO
 70
     1
  9
$DIMPOST
  1

  9
$DIMAPOST
  1

  9
$DIMALT
 70
     0
  9
$DIMALTD
 70
     3
  9
$DIMALTF
 40
0.0393700787
  9
$DIMLFAC
 40
1.0
  9
$DIMTOFL
 70
     1
  9
$DIMTVP
 40
0.0
  9
$DIMTIX
 70
     0
  9
$DIMSOXD
 70
     0
  9
$DIMSAH
 70
     0
  9
$DIMBLK1
  1

  9
$DIMBLK2
  1

  9
$DIMSTYLE
  2
ISO-25
  9
$DIMCLRD
 70
     0
  9
$DIMCLRE
 70
     0
  9
$DIMCLRT
 70
     0
  9
$DIMTFAC
 40
1.0
  9
$DIMGAP
 40
1.524
  9
$DIMJUST
 70
     0
  9
$DIMSD1
 70
     0
  9
$DIMSD2
 70
     0
  9
$DIMTOLJ
 70
     0
  9
$DIMTZIN
 70
     1
  9
$DIMALTZ
 70
     0
  9
$DIMALTTZ
 70
     0
  9
$DIMUPT
 70
     0
  9
$DIMDEC
 70
     2
  9
$DIMTDEC
 70
     2
  9
$DIMALTU
 70
     2
  9
$DIMALTTD
 70
     3
  9
$DIMTXSTY
  7
Standard
  9
$DIMAUNIT
 70
     0
  9
$DIMADEC
 70
     2
  9
$DIMALTRND
 40
0.0
  9
$DIMAZIN
 70
     0
  9
$DIMDSEP
 70
    44
  9
$DIMATFIT
 70
     3
  9
$DIMFRAC
 70
     0
  9
$DIMLDRBLK
  1

  9
$DIMLUNIT
 70
     2
  9
$DIMLWD
 70
    -2
  9
$DIMLWE
 70
    -2
  9
$DIMTMOVE
 70
     0
  9
$LUNITS
 70
     2
  9
$LUPREC
 70
     6
  9
$SKETCHINC
 40
1.0
  9
$FILLETRAD
 40
0.0
  9
$AUNITS
 70
     0
  9
$AUPREC
 70
     2
  9
$MENU
  1
.
  9
$ELEVATION
 40
0.0
  9
$PELEVATION
 40
0.0
  9
$THICKNESS
 40
0.0
  9
$LIMCHECK
 70
     0
  9
$CHAMFERA
 40
0.0
  9
$CHAMFERB
 40
0.0
  9
$CHAMFERC
 40
0.0
  9
$CHAMFERD
 40
0.0
  9
$SKPOLY
 70
     0
  9
$TDCREATE
 40
2460262.777665047
  9
$TDUCREATE
 40
2460262.652665047
  9
$TDUPDATE
 40
2460262.777665348
  9
$TDUUPDATE
 40
2460262.652665348
  9
$TDINDWG
 40
0.0000000116
  9
$TDUSRTIMER
 40
0.0000000116
  9
$USRTIMER
 70
     1
  9
$ANGBASE
 50
0.0
  9
$ANGDIR
 70
     0
  9
$PDMODE
 70
     0
  9
$PDSIZE
 40
-1.0
  9
$PLINEWID
 40
0.0
  9
$SPLFRAME
 70
     0
  9
$SPLINETYPE
 70
     6
  9
$SPLINESEGS
 70
     8
  9
$HANDSEED
  5
B1
  9
$SURFTAB1
 70
     6
  9
$SURFTAB2
 70
     6
  9
$SURFTYPE
 70
     6
  9
$SURFU
 70
     6
  9
$SURFV
 70
     6
  9
$UCSBASE
  2

  9
$UCSNAME
  2

  9
$UCSORG
 10
0.0
 20
0.0
 30
0.0
  9
$UCSXDIR
 10
1.0
 20
0.0
 30
0.0
  9
$UCSYDIR
 10
0.0
 20
1.0
 30
0.0
  9
$UCSORTHOREF
  2

  9
$UCSORTHOVIEW
 70
     0
  9
$UCSORGTOP
 10
0.0
 20
0.0
 30
0.0
  9
$UCSORGBOTTOM
 10
0.0
 20
0.0
 30
0.0
  9
$UCSORGLEFT
 10
0.0
 20
0.0
 30
0.0
  9
$UCSORGRIGHT
 10
0.0
 20
0.0
 30
0.0
  9
$UCSORGFRONT
 10
0.0
 20
0.0
 30
0.0
  9
$UCSORGBACK
 10
0.0
 20
0.0
 30
0.0
  9
$PUCSBASE
  2

  9
$PUCSNAME
  2

  9
$PUCSORG
 10
0.0
 20
0.0
 30
0.0
  9
$PUCSXDIR
 10
1.0
 20
0.0
 30
0.0
  9
$PUCSYDIR
 10
0.0
 20
1.0
 30
0.0
  9
$PUCSORTHOREF
  2

  9
$PUCSORTHOVIEW
 70
     0
  9
$PUCSORGTOP
 10
0.0
 20
0.0
 30
0.0
  9
$PUCSORGBOTTOM
 10
0.0
 20
0.0
 30
0.0
  9
$PUCSORGLEFT
 10
0.0
 20
0.0
 30
0.0
  9
$PUCSORGRIGHT
 10
0.0
 20
0.0
 30
0.0
  9
$PUCSORGFRONT
 10
0.0
 20
0.0
 30
0.0
  9
$PUCSORGBACK
 10
0.0
 20
0.0
 30
0.0
  9
$USERI1
 70
     0
  9
$USERI2
 70
     0
  9
$USERI3
 70
     0
  9
$USERI4
 70
     0
  9
$USERI5
 70
     0
  9
$USERR1
 40
0.0
  9
$USERR2
 40
0.0
  9
$USERR3
 40
0.0
  9
$USERR4
 40
0.0
  9
$USERR5
 40
0.0
  9
$WORLDVIEW
 70
     1
  9
$SHADEDGE
 70
     3
  9
$SHADEDIF
 70
    70
  9
$TILEMODE
 70
     1
  9
$MAXACTVP
 70
    64
  9
$PINSBASE
 10
0.0
 20
0.0
 30
0.0
  9
$PLIMCHECK
 70
     0
  9
$PEXTMIN
 10
1.0000000000E+20
 20
1.0000000000E+20
 30
1.0000000000E+20
  9
$PEXTMAX
 10
-1.0000000000E+20
 20
-1.0000000000E+20
 30
-1.0000000000E+20
  9
$PLIMMIN
 10
0.0
 20
0.0
  9
$PLIMMAX
 10
420.0
 20
297.0
  9
$UNITMODE
 70
     0
  9
$VISRETAIN
 70
     1
  9
$PLINEGEN
 70
     0
  9
$PSLTSCALE
 70
     1
  9
$TREEDEPTH
 70
  3020
  9
$CMLSTYLE
  2
Standard
  9
$CMLJUST
 70
     0
  9
$CMLSCALE
 40
20.0
  9
$PROXYGRAPHICS
 70
     1
  9
$MEASUREMENT
 70
     1
  9
$CELWEIGHT
370
    -1
  9
$ENDCAPS
280
     0
  9
$JOINSTYLE
280
     0
  9
$LWDISPLAY
290
     1
  9
$INSUNITS
 70
     4
  9
$HYPERLINKBASE
  1

  9
$STYLESHEET
  1

  9
$XEDIT
290
     1
  9
$CEPSNTYPE
380
     0
  9
$PSTYLEMODE
290
     1
  9
$FINGERPRINTGUID
  2
{c75abb6f-ab2d-468f-b8f9-1ee1a7eca842}
  9
$VERSIONGUID
  2
{FAEB1C32-E019-11D5-929B-00C0DF256EC4}
  9
$EXTNAMES
290
     1
  9
$PSVPSCALE
 40
0.0
  9
$OLESTARTUP
290
     0
  0
ENDSEC
  0
SECTION
  2
CLASSES
  0
CLASS
  1
ACDBDICTIONARYWDFLT
  2
AcDbDictionaryWithDefault
  3
ObjectDBX Classes
 90
        0
280
     0
281
     0
  0
CLASS
  1
VISUALSTYLE
  2
AcDbVisualStyle
  3
ObjectDBX Classes
 90
     4095
280
     0
281
     0
  0
CLASS
  1
MATERIAL
  2
AcDbMaterial
  3
ObjectDBX Classes
 90
     1153
280
     0
281
     0
  0
CLASS
  1
SCALE
  2
AcDbScale
  3
ObjectDBX Classes
 90
     1153
280
     0
281
     0
  0
CLASS
  1
TABLESTYLE
  2
AcDbTableStyle
  3
ObjectDBX Classes
 90
     4095
280
     0
281
     0
  0
CLASS
  1
MLEADERSTYLE
  2
AcDbMLeaderStyle
  3
ACDB_MLEADERSTYLE_CLASS
 90
     4095
280
     0
281
     0
  0
CLASS
  1
SUN
  2
AcDbSun
  3
SCENEOE
 90
     1153
280
     0
281
     0
  0
CLASS
  1
ACDBPLACEHOLDER
  2
AcDbPlaceHolder
  3
ObjectDBX Classes
 90
        0
280
     0
281
     0
  0
CLASS
  1
LAYOUT
  2
AcDbLayout
  3
ObjectDBX Classes
 90
        0
280
     0
281
     0
  0
ENDSEC
  0
SECTION
  2
TABLES
  0
TABLE
  2
VPORT
  5
8
330
0
100
AcDbSymbolTable
 70
     1
  0
VPORT
  5
29
330
8
100
AcDbSymbolTableRecord
100
AcDbViewportTableRecord
  2
*Active
 70
     0
 10
0.0
 20
0.0
 11
1.0
 21
1.0
 12
105.0
 22
148.5
 13
0.0
 23
0.0
 14
10.0
 24
10.0
 15
10.0
 25
10.0
 16
0.0
 26
0.0
 36
1.0
 17
0.0
 27
0.0
 37
0.0
 40
297.0
 41
0.7070707071
 42
50.0
 43
0.0
 44
0.0
 50
0.0
 51
0.0
 71
     0
 72
  2000
 73
     1
 74
     3
 75
     0
 76
     0
 77
     0
 78
     0
281
     0
 65
     1
110
0.0
120
0.0
130
0.0
111
1.0
121
0.0
131
0.0
112
0.0
122
1.0
132
0.0
 79
     0
146
0.0
  0
ENDTAB
  0
TABLE
  2
LTYPE
  5
5
330
0
100
AcDbSymbolTable
 70
     6
  0
LTYPE
  5
14
330
5
100
AcDbSymbolTableRecord
100
AcDbLinetypeTableRecord
  2
ByBlock
 70
     0
  3

 72
    65
 73
     0
 40
0.0
  0
LTYPE
  5
15
330
5
100
AcDbSymbolTableRecord
100
AcDbLinetypeTableRecord
  2
ByLayer
 70
     0
  3

 72
    65
 73
     0
 40
0.0
  0
LTYPE
  5
16
330
5
100
AcDbSymbolTableRecord
100
AcDbLinetypeTableRecord
  2
Continuous
 70
     0
  3
Solid line
 72
    65
 73
     0
 40
0.0
  0
LTYPE
  5
5E
330
5
100
AcDbSymbolTableRecord
100
AcDbLinetypeTableRecord
  2
HIDDEN
 70
     0
  3
Hidden __ __ __ __ __ __ __ __ __ __ __ __ __ __
 72
    65
 73
     2
 40
1.905
 49
1.27
 74
     0
 49
-0.635
 74
     0
  0
LTYPE
  5
5F
330
5
100
AcDbSymbolTableRecord
100
AcDbLinetypeTableRecord
  2
PHANTOM
 70
     0
  3
Phantom ______  __  __  ______  __  __  ______
 72
    65
 73
     6
 40
12.7
 49
6.35
 74
     0
 49
-1.27
 74
     0
 49
1.27
 74
     0
 49
-1.27
 74
     0
 49
1.27
 74
     0
 49
-1.27
 74
     0
  0
LTYPE
  5
60
330
5
100
AcDbSymbolTableRecord
100
AcDbLinetypeTableRecord
  2
CENTER
 70
     0
  3
Center ____ _ ____ _ ____ _ ____ _ ____ _ ____
 72
    65
 73
     4
 40
10.16
 49
6.35
 74
     0
 49
-1.27
 74
     0
 49
1.27
 74
     0
 49
-1.27
 74
     0
  0
LTYPE
  5
61
330
5
100
AcDbSymbolTableRecord
100
AcDbLinetypeTableRecord
  2
CENTERX2
 70
     0
  3
Center (2x) ________  __  ________  __  _____
 72
    65
 73
     4
 40
20.32
 49
12.7
 74
     0
 49
-2.54
 74
     0
 49
2.54
 74
     0
 49
-2.54
 74
     0
  0
LTYPE
  5
62
330
5
100
AcDbSymbolTableRecord
100
AcDbLinetypeTableRecord
  2
DOT2
 70
     0
  3
Dot (.5x) ........................................
 72
    65
 73
     2
 40
0.635
 49
0.0
 74
     0
 49
-0.635
 74
     0
  0
ENDTAB
  0
TABLE
  2
LAYER
  5
2
330
0
100
AcDbSymbolTable
 70
     3
  0
LAYER
  5
10
330
2
100
AcDbSymbolTableRecord
100
AcDbLayerTableRecord
  2
0
 70
     0
 62
     7
  6
Continuous
370
    -3
390
F
  0
LAYER
  5
63
330
2
100
AcDbSymbolTableRecord
100
AcDbLayerTableRecord
  2
TOP_LAYER
 70
     0
 62
     1
  6
Continuous
370
    -3
390
F
  0
LAYER
  5
64
330
2
100
AcDbSymbolTableRecord
100
AcDbLayerTableRecord
  2
DIMENSIONS
 70
     0
 62
   150
  6
Continuous
370
    -3
390
F
  0
ENDTAB
  0
TABLE
  2
STYLE
  5
3
330
0
100
AcDbSymbolTable
 70
     2
  0
STYLE
  5
11
330
3
100
AcDbSymbolTableRecord
100
AcDbTextStyleTableRecord
  2
Standard
 70
     0
 40
0.0
 41
1.0
 50
0.0
 71
     0
 42
3.175
  3
txt
  4

  0
STYLE
  5
76
330
3
100
AcDbSymbolTableRecord
100
AcDbTextStyleTableRecord
  2
SLDTEXTSTYLE0
 70
     0
 40
0.0
 41
0.75
 50
0.0
 71
     0
 42
3.175
  3
TXT
  4

  0
ENDTAB
  0
TABLE
  2
VIEW
  5
6
330
0
100
AcDbSymbolTable
 70
     0
  0
ENDTAB
  0
TABLE
  2
UCS
  5
7
330
0
100
AcDbSymbolTable
 70
     0
  0
ENDTAB
  0
TABLE
  2
APPID
  5
9
330
0
100
AcDbSymbolTable
 70
     1
  0
APPID
  5
12
330
9
100
AcDbSymbolTableRecord
100
AcDbRegAppTableRecord
  2
ACAD
 70
     0
  0
ENDTAB
  0
TABLE
  2
DIMSTYLE
  5
A
330
0
100
AcDbSymbolTable
 70
     3
100
AcDbDimStyleTable
  0
DIMSTYLE
105
27
330
A
100
AcDbSymbolTableRecord
100
AcDbDimStyleTableRecord
  2
ISO-25
 70
     0
 41
2.5
 42
0.625
 43
3.75
 44
1.25
 73
     0
 74
     0
 77
     1
 78
     8
140
2.5
141
2.5
143
0.0393700787
147
0.625
171
     3
172
     1
178
     0
271
     2
272
     2
274
     3
278
    44
283
     0
284
     8
340
11
  0
DIMSTYLE
105
77
102
{ACAD_REACTORS
330
75
102
}
330
A
100
AcDbSymbolTableRecord
100
AcDbDimStyleTableRecord
  2
SLDDIMSTYLE0
 70
     0
 41
3.302
 44
0.0
 45
0.000000001
 78
    12
 79
     3
140
3.175
147
0.79375
173
     1
178
     0
271
     2
272
     2
276
     2
284
    12
340
76
  0
DIMSTYLE
105
83
102
{ACAD_REACTORS
330
82
330
8E
330
99
102
}
330
A
100
AcDbSymbolTableRecord
100
AcDbDimStyleTableRecord
  2
SLDDIMSTYLE1
 70
     0
 41
3.302
 44
0.0
 45
0.000000001
 78
    12
 79
     3
140
3.175
147
0.79375
172
     1
173
     1
178
     0
271
     2
272
     2
276
     2
284
    12
289
     0
340
76
  0
ENDTAB
  0
TABLE
  2
BLOCK_RECORD
  5
1
330
0
100
AcDbSymbolTable
 70
     6
  0
BLOCK_RECORD
  5
1F
330
1
100
AcDbSymbolTableRecord
100
AcDbBlockTableRecord
  2
*Model_Space
340
22
  0
BLOCK_RECORD
  5
1B
330
1
100
AcDbSymbolTableRecord
100
AcDbBlockTableRecord
  2
*Paper_Space
340
1E
  0
BLOCK_RECORD
  5
23
330
1
100
AcDbSymbolTableRecord
100
AcDbBlockTableRecord
  2
*Paper_Space0
340
26
  0
BLOCK_RECORD
  5
78
330
1
100
AcDbSymbolTableRecord
100
AcDbBlockTableRecord
  2
_D
340
0
  0
BLOCK_RECORD
  5
84
330
1
100
AcDbSymbolTableRecord
100
AcDbBlockTableRecord
  2
_D_1
340
0
  0
BLOCK_RECORD
  5
8F
330
1
100
AcDbSymbolTableRecord
100
AcDbBlockTableRecord
  2
_D_2
340
0
  0
BLOCK_RECORD
  5
9A
330
1
100
AcDbSymbolTableRecord
100
AcDbBlockTableRecord
  2
_D_3
340
0
  0
BLOCK_RECORD
  5
A4
330
1
100
AcDbSymbolTableRecord
100
AcDbBlockTableRecord
  2
SW_CENTERMARKSYMBOL_0
340
0
102
{BLKREFS
331
AF
102
}
  0
ENDTAB
  0
ENDSEC
  0
SECTION
  2
BLOCKS
  0
BLOCK
  5
20
330
1F
100
AcDbEntity
  8
0
100
AcDbBlockBegin
  2
*Model_Space
 70
     0
 10
0.0
 20
0.0
 30
0.0
  3
*Model_Space
  1

  0
ENDBLK
  5
21
330
1F
100
AcDbEntity
  8
0
100
AcDbBlockEnd
  0
BLOCK
  5
1C
330
1B
100
AcDbEntity
 67
     1
  8
0
100
AcDbBlockBegin
  2
*Paper_Space
 70
     0
 10
0.0
 20
0.0
 30
0.0
  3
*Paper_Space
  1

  0
ENDBLK
  5
1D
330
1B
100
AcDbEntity
 67
     1
  8
0
100
AcDbBlockEnd
  0
BLOCK
  5
24
330
23
100
AcDbEntity
  8
0
100
AcDbBlockBegin
  2
*Paper_Space0
 70
     0
 10
0.0
 20
0.0
 30
0.0
  3
*Paper_Space0
  1

  0
ENDBLK
  5
25
330
23
100
AcDbEntity
  8
0
100
AcDbBlockEnd
  0
BLOCK
  5
79
330
78
100
AcDbEntity
  8
0
100
AcDbBlockBegin
  2
_D
 70
     0
 10
0.0
 20
0.0
 30
0.0
  3
_D
  1

  0
SOLID
  5
7B
330
78
100
AcDbEntity
  8
DIMENSIONS
100
AcDbTrace
 10
129.7450878023
 20
205.3849140486
 30
0.0
 11
129.2370878023
 21
202.0829140486
 31
0.0
 12
130.2530878023
 22
202.0829140486
 32
0.0
 13
130.2530878023
 23
202.0829140486
 33
0.0
  0
SOLID
  5
7C
330
78
100
AcDbEntity
  8
DIMENSIONS
100
AcDbTrace
 10
129.7450878023
 20
146.3849140486
 30
0.0
 11
130.2530878023
 21
149.6869140486
 31
0.0
 12
129.2370878023
 22
149.6869140486
 32
0.0
 13
129.2370878023
 23
149.6869140486
 33
0.0
  0
LINE
  5
7D
330
78
100
AcDbEntity
  8
DIMENSIONS
100
AcDbLine
 10
112.4478956728
 20
205.3849140486
 30
0.0
 11
132.9200878023
 21
205.3849140486
 31
0.0
  0
LINE
  5
7E
330
78
100
AcDbEntity
  8
DIMENSIONS
100
AcDbLine
 10
112.4478956728
 20
146.3849140486
 30
0.0
 11
132.9200878023
 21
146.3849140486
 31
0.0
  0
LINE
  5
7F
330
78
100
AcDbEntity
  8
DIMENSIONS
100
AcDbLine
 10
129.7450878023
 20
205.3849140486
 30
0.0
 11
129.7450878023
 21
172.5999325363
 31
0.0
  0
LINE
  5
80
330
78
100
AcDbEntity
  8
DIMENSIONS
100
AcDbLine
 10
129.7450878023
 20
146.3849140486
 30
0.0
 11
129.7450878023
 21
167.5596198848
 31
0.0
  0
MTEXT
  5
81
330
78
100
AcDbEntity
  8
DIMENSIONS
100
AcDbMText
 10
124.466650404
 20
171.6524103078
 30
0.0
 40
3.175
 41
0.0
 71
     1
 72
     1
  1
59,00
  7
SLDTEXTSTYLE0
 73
     1
 44
1.0
  0
ENDBLK
  5
7A
330
78
100
AcDbEntity
  8
0
100
AcDbBlockEnd
  0
BLOCK
  5
85
330
84
100
AcDbEntity
  8
0
100
AcDbBlockBegin
  2
_D_1
 70
     0
 10
0.0
 20
0.0
 30
0.0
  3
_D_1
  1

  0
SOLID
  5
87
330
84
100
AcDbEntity
  8
DIMENSIONS
100
AcDbTrace
 10
92.1778956728
 20
135.2773938015
 30
0.0
 11
88.8758956728
 21
135.7853938015
 31
0.0
 12
88.8758956728
 22
134.7693938015
 32
0.0
 13
88.8758956728
 23
134.7693938015
 33
0.0
  0
SOLID
  5
88
330
84
100
AcDbEntity
  8
DIMENSIONS
100
AcDbTrace
 10
111.1778956728
 20
135.2773938015
 30
0.0
 11
114.4798956728
 21
134.7693938015
 31
0.0
 12
114.4798956728
 22
135.7853938015
 32
0.0
 13
114.4798956728
 23
135.7853938015
 33
0.0
  0
LINE
  5
89
330
84
100
AcDbEntity
  8
DIMENSIONS
100
AcDbLine
 10
92.1778956728
 20
204.1149140486
 30
0.0
 11
92.1778956728
 21
132.1023938015
 31
0.0
  0
LINE
  5
8A
330
84
100
AcDbEntity
  8
DIMENSIONS
100
AcDbLine
 10
111.1778956728
 20
204.1149140486
 30
0.0
 11
111.1778956728
 21
132.1023938015
 31
0.0
  0
LINE
  5
8B
330
84
100
AcDbEntity
  8
DIMENSIONS
100
AcDbLine
 10
92.1778956728
 20
135.2773938015
 30
0.0
 11
85.8278956728
 21
135.2773938015
 31
0.0
  0
LINE
  5
8C
330
84
100
AcDbEntity
  8
DIMENSIONS
100
AcDbLine
 10
111.1778956728
 20
135.2773938015
 30
0.0
 11
117.5278956728
 21
135.2773938015
 31
0.0
  0
MTEXT
  5
8D
330
84
100
AcDbEntity
  8
DIMENSIONS
100
AcDbMText
 10
97.1231088962
 20
136.8500278988
 30
0.0
 40
3.175
 41
0.0
 71
     1
 72
     1
  1
19,00
  7
SLDTEXTSTYLE0
 73
     1
 44
1.0
  0
ENDBLK
  5
86
330
84
100
AcDbEntity
  8
0
100
AcDbBlockEnd
  0
BLOCK
  5
90
330
8F
100
AcDbEntity
  8
0
100
AcDbBlockBegin
  2
_D_2
 70
     0
 10
0.0
 20
0.0
 30
0.0
  3
_D_2
  1

  0
SOLID
  5
92
330
8F
100
AcDbEntity
  8
DIMENSIONS
100
AcDbTrace
 10
92.1778956728
 20
210.4344656406
 30
0.0
 11
88.8758956728
 21
210.9424656406
 31
0.0
 12
88.8758956728
 22
209.9264656406
 32
0.0
 13
88.8758956728
 23
209.9264656406
 33
0.0
  0
SOLID
  5
93
330
8F
100
AcDbEntity
  8
DIMENSIONS
100
AcDbTrace
 10
96.1778956728
 20
210.4344656406
 30
0.0
 11
99.4798956728
 21
209.9264656406
 31
0.0
 12
99.4798956728
 22
210.9424656406
 32
0.0
 13
99.4798956728
 23
210.9424656406
 33
0.0
  0
LINE
  5
94
330
8F
100
AcDbEntity
  8
DIMENSIONS
100
AcDbLine
 10
92.1778956728
 20
204.6549140486
 30
0.0
 11
92.1778956728
 21
213.6094656406
 31
0.0
  0
LINE
  5
95
330
8F
100
AcDbEntity
  8
DIMENSIONS
100
AcDbLine
 10
96.1778956728
 20
204.6549140486
 30
0.0
 11
96.1778956728
 21
213.6094656406
 31
0.0
  0
LINE
  5
96
330
8F
100
AcDbEntity
  8
DIMENSIONS
100
AcDbLine
 10
92.1778956728
 20
210.4344656406
 30
0.0
 11
85.8278956728
 21
210.4344656406
 31
0.0
  0
LINE
  5
97
330
8F
100
AcDbEntity
  8
DIMENSIONS
100
AcDbLine
 10
96.1778956728
 20
210.4344656406
 30
0.0
 11
102.5278956728
 21
210.4344656406
 31
0.0
  0
MTEXT
  5
98
330
8F
100
AcDbEntity
  8
DIMENSIONS
100
AcDbMText
 10
90.4530978662
 20
212.0070997378
 30
0.0
 40
3.175
 41
0.0
 71
     1
 72
     1
  1
4,00
  7
SLDTEXTSTYLE0
 73
     1
 44
1.0
  0
ENDBLK
  5
91
330
8F
100
AcDbEntity
  8
0
100
AcDbBlockEnd
  0
BLOCK
  5
9B
330
9A
100
AcDbEntity
  8
0
100
AcDbBlockBegin
  2
_D_3
 70
     0
 10
0.0
 20
0.0
 30
0.0
  3
_D_3
  1

  0
SOLID
  5
9D
330
9A
100
AcDbEntity
  8
DIMENSIONS
100
AcDbTrace
 10
98.1778956728
 20
210.4344656406
 30
0.0
 11
94.8758956728
 21
210.9424656406
 31
0.0
 12
94.8758956728
 22
209.9264656406
 32
0.0
 13
94.8758956728
 23
209.9264656406
 33
0.0
  0
SOLID
  5
9E
330
9A
100
AcDbEntity
  8
DIMENSIONS
100
AcDbTrace
 10
105.1778956728
 20
210.4344656406
 30
0.0
 11
108.4798956728
 21
209.9264656406
 31
0.0
 12
108.4798956728
 22
210.9424656406
 32
0.0
 13
108.4798956728
 23
210.9424656406
 33
0.0
  0
LINE
  5
9F
330
9A
100
AcDbEntity
  8
DIMENSIONS
100
AcDbLine
 10
98.1778956728
 20
201.1549140486
 30
0.0
 11
98.1778956728
 21
213.6094656406
 31
0.0
  0
LINE
  5
A0
330
9A
100
AcDbEntity
  8
DIMENSIONS
100
AcDbLine
 10
105.1778956728
 20
201.1549140486
 30
0.0
 11
105.1778956728
 21
213.6094656406
 31
0.0
  0
LINE
  5
A1
330
9A
100
AcDbEntity
  8
DIMENSIONS
100
AcDbLine
 10
98.1778956728
 20
210.4344656406
 30
0.0
 11
91.8278956728
 21
210.4344656406
 31
0.0
  0
LINE
  5
A2
330
9A
100
AcDbEntity
  8
DIMENSIONS
100
AcDbLine
 10
105.1778956728
 20
210.4344656406
 30
0.0
 11
111.5278956728
 21
210.4344656406
 31
0.0
  0
MTEXT
  5
A3
330
9A
100
AcDbEntity
  8
DIMENSIONS
100
AcDbMText
 10
98.2960947778
 20
212.0070997378
 30
0.0
 40
3.175
 41
0.0
 71
     1
 72
     1
  1
7,00
  7
SLDTEXTSTYLE0
 73
     1
 44
1.0
  0
ENDBLK
  5
9C
330
9A
100
AcDbEntity
  8
0
100
AcDbBlockEnd
  0
BLOCK
  5
A5
330
A4
100
AcDbEntity
  8
0
100
AcDbBlockBegin
  2
SW_CENTERMARKSYMBOL_0
 70
     0
 10
0.0
 20
0.0
 30
0.0
  3
SW_CENTERMARKSYMBOL_0
  1

  0
LINE
  5
A7
330
A4
100
AcDbEntity
  8
DIMENSIONS
 62
     0
100
AcDbLine
 10
0.0
 20
0.0
 30
0.0
 11
0.0
 21
2.54
 31
0.0
  0
LINE
  5
A8
330
A4
100
AcDbEntity
  8
DIMENSIONS
 62
     0
100
AcDbLine
 10
0.0
 20
0.0
 30
0.0
 11
-2.54
 21
0.0
 31
0.0
  0
LINE
  5
A9
330
A4
100
AcDbEntity
  8
DIMENSIONS
 62
     0
100
AcDbLine
 10
0.0
 20
0.0
 30
0.0
 11
0.0
 21
-2.54
 31
0.0
  0
LINE
  5
AA
330
A4
100
AcDbEntity
  8
DIMENSIONS
 62
     0
100
AcDbLine
 10
0.0
 20
0.0
 30
0.0
 11
2.54
 21
0.0
 31
0.0
  0
LINE
  5
AB
330
A4
100
AcDbEntity
  8
DIMENSIONS
 62
     0
100
AcDbLine
 10
0.0
 20
5.08
 30
0.0
 11
0.0
 21
5.5917189175
 31
0.0
  0
LINE
  5
AC
330
A4
100
AcDbEntity
  8
DIMENSIONS
 62
     0
100
AcDbLine
 10
-5.08
 20
0.0
 30
0.0
 11
-5.5917189175
 21
0.0
 31
0.0
  0
LINE
  5
AD
330
A4
100
AcDbEntity
  8
DIMENSIONS
 62
     0
100
AcDbLine
 10
0.0
 20
-5.08
 30
0.0
 11
0.0
 21
-5.5917189175
 31
0.0
  0
LINE
  5
AE
330
A4
100
AcDbEntity
  8
DIMENSIONS
 62
     0
100
AcDbLine
 10
5.08
 20
0.0
 30
0.0
 11
5.5917189175
 21
0.0
 31
0.0
  0
ENDBLK
  5
A6
330
A4
100
AcDbEntity
  8
0
100
AcDbBlockEnd
  0
ENDSEC
  0
SECTION
  2
ENTITIES
  0
LINE
  5
65
330
1F
100
AcDbEntity
  8
TOP_LAYER
  6
Continuous
370
    25
100
AcDbLine
 10
105.1778956728
 20
155.8849140486
 30
0.0
 11
105.1778956728
 21
199.8849140486
 31
0.0
  0
ARC
  5
66
330
1F
100
AcDbEntity
  8
TOP_LAYER
  6
Continuous
370
    25
100
AcDbCircle
 10
101.6778956728
 20
155.8849140486
 30
0.0
 40
3.5
100
AcDbArc
 50
180.0
 51
0.0
  0
LINE
  5
67
330
1F
100
AcDbEntity
  8
TOP_LAYER
  6
Continuous
370
    25
100
AcDbLine
 10
98.1778956728
 20
199.8849140486
 30
0.0
 11
98.1778956728
 21
155.8849140486
 31
0.0
  0
ARC
  5
68
330
1F
100
AcDbEntity
  8
TOP_LAYER
  6
Continuous
370
    25
100
AcDbCircle
 10
101.6778956728
 20
199.8849140486
 30
0.0
 40
3.5
100
AcDbArc
 50
0.0
 51
180.0
  0
ARC
  5
69
330
1F
100
AcDbEntity
  8
TOP_LAYER
  6
Continuous
370
    25
100
AcDbCircle
 10
101.6778956728
 20
155.8849140486
 30
0.0
 40
9.500000000000014
100
AcDbArc
 50
180.0
 51
0.0
  0
LINE
  5
6A
330
1F
100
AcDbEntity
  8
TOP_LAYER
  6
Continuous
370
    25
100
AcDbLine
 10
92.1778956728
 20
203.3849140486
 30
0.0
 11
92.1778956728
 21
155.8849140486
 31
0.0
  0
ARC
  5
6B
330
1F
100
AcDbEntity
  8
TOP_LAYER
  6
Continuous
370
    25
100
AcDbCircle
 10
94.1778956728
 20
203.3849140486
 30
0.0
 40
2.0
100
AcDbArc
 50
0.0
 51
180.0
  0
LINE
  5
6C
330
1F
100
AcDbEntity
  8
TOP_LAYER
  6
Continuous
370
    25
100
AcDbLine
 10
96.1778956728
 20
155.8849140486
 30
0.0
 11
96.1778956728
 21
203.3849140486
 31
0.0
  0
ARC
  5
6D
330
1F
100
AcDbEntity
  8
TOP_LAYER
  6
Continuous
370
    25
100
AcDbCircle
 10
101.6778956728
 20
155.8849140486
 30
0.0
 40
5.500000000000014
100
AcDbArc
 50
180.0
 51
0.0
  0
LINE
  5
6E
330
1F
100
AcDbEntity
  8
TOP_LAYER
  6
Continuous
370
    25
100
AcDbLine
 10
107.1778956728
 20
203.3849140486
 30
0.0
 11
107.1778956728
 21
155.8849140486
 31
0.0
  0
ARC
  5
6F
330
1F
100
AcDbEntity
  8
TOP_LAYER
  6
Continuous
370
    25
100
AcDbCircle
 10
109.1778956728
 20
203.3849140486
 30
0.0
 40
2.0
100
AcDbArc
 50
0.0
 51
180.0
  0
LINE
  5
70
330
1F
100
AcDbEntity
  8
TOP_LAYER
  6
Continuous
370
    25
100
AcDbLine
 10
111.1778956728
 20
155.8849140486
 30
0.0
 11
111.1778956728
 21
203.3849140486
 31
0.0
  0
LINE
  5
71
330
1F
100
AcDbEntity
  8
DIMENSIONS
  6
CENTERX2
100
AcDbLine
 10
92.1778956728
 20
205.3849140486
 30
0.0
 11
111.1778956728
 21
205.3849140486
 31
0.0
  0
LINE
  5
72
330
1F
100
AcDbEntity
  8
DIMENSIONS
100
AcDbLine
 10
101.6778956728
 20
146.3849140486
 30
0.0
 11
111.1778956728
 21
146.3849140486
 31
0.0
  0
LINE
  5
73
330
1F
100
AcDbEntity
  8
DIMENSIONS
  6
CENTERX2
100
AcDbLine
 10
101.6778956728
 20
205.3849140486
 30
0.0
 11
101.6778956728
 21
146.3849140486
 31
0.0
  0
CIRCLE
  5
74
330
1F
100
AcDbEntity
  8
DIMENSIONS
  6
CENTERX2
100
AcDbCircle
 10
101.6778956728
 20
175.8849140486
 30
0.0
 40
3.051718917459994
  0
DIMENSION
  5
75
330
1F
100
AcDbEntity
  8
DIMENSIONS
100
AcDbDimension
  2
_D
 10
129.7450878023
 20
146.3849140486
 30
0.0
 11
129.7450878023
 21
170.0797762106
 31
0.0
 70
   160
  1
<>
 71
     2
 42
-1.0
  3
SLDDIMSTYLE0
100
AcDbAlignedDimension
 13
111.1778956728
 23
205.3849140486
 33
0.0
 14
111.1778956728
 24
146.3849140486
 34
0.0
 50
90.0
100
AcDbRotatedDimension
  0
DIMENSION
  5
82
330
1F
100
AcDbEntity
  8
DIMENSIONS
100
AcDbDimension
  2
_D_1
 10
111.1778956728
 20
135.2773938015
 30
0.0
 11
102.4015462946
 21
135.2773938015
 31
0.0
 70
   160
  1
<>
 71
     2
 42
-1.0
  3
SLDDIMSTYLE1
100
AcDbAlignedDimension
 13
92.1778956728
 23
205.3849140486
 33
0.0
 14
111.1778956728
 24
205.3849140486
 34
0.0
100
AcDbRotatedDimension
  0
DIMENSION
  5
8E
330
1F
100
AcDbEntity
  8
DIMENSIONS
100
AcDbDimension
  2
_D_2
 10
96.1778956728
 20
210.4344656406
 30
0.0
 11
94.558549383
 21
210.4344656406
 31
0.0
 70
   160
  1
<>
 71
     2
 42
-1.0
  3
SLDDIMSTYLE1
100
AcDbAlignedDimension
 13
92.1778956728
 23
203.3849140486
 33
0.0
 14
96.1778956728
 24
203.3849140486
 34
0.0
100
AcDbRotatedDimension
  0
DIMENSION
  5
99
330
1F
100
AcDbEntity
  8
DIMENSIONS
100
AcDbDimension
  2
_D_3
 10
105.1778956728
 20
210.4344656406
 30
0.0
 11
102.4015462946
 21
210.4344656406
 31
0.0
 70
   160
  1
<>
 71
     2
 42
-1.0
  3
SLDDIMSTYLE1
100
AcDbAlignedDimension
 13
98.1778956728
 23
199.8849140486
 33
0.0
 14
105.1778956728
 24
199.8849140486
 34
0.0
100
AcDbRotatedDimension
  0
INSERT
  5
AF
330
1F
100
AcDbEntity
  8
DIMENSIONS
100
AcDbBlockReference
  2
SW_CENTERMARKSYMBOL_0
 10
101.6778956728
 20
175.8849140486
 30
0.0
  0
ENDSEC
  0
SECTION
  2
OBJECTS
  0
DICTIONARY
  5
C
330
0
100
AcDbDictionary
281
     1
  3
ACAD_GROUP
350
D
  3
ACAD_LAYOUT
350
1A
  3
ACAD_MLINESTYLE
350
17
  3
ACAD_PLOTSETTINGS
350
19
  3
ACAD_PLOTSTYLENAME
350
E
  3
ACAD_SCALELIST
350
47
  3
DWGPROPS
350
B0
  0
DICTIONARY
  5
D
102
{ACAD_REACTORS
330
C
102
}
330
C
100
AcDbDictionary
281
     1
  0
DICTIONARY
  5
1A
102
{ACAD_REACTORS
330
C
102
}
330
C
100
AcDbDictionary
281
     1
  3
Layout1
350
1E
  3
Layout2
350
26
  3
Model
350
22
  0
DICTIONARY
  5
17
102
{ACAD_REACTORS
330
C
102
}
330
C
100
AcDbDictionary
281
     1
  3
Standard
350
18
  0
DICTIONARY
  5
19
102
{ACAD_REACTORS
330
C
102
}
330
C
100
AcDbDictionary
281
     1
  0
ACDBDICTIONARYWDFLT
  5
E
102
{ACAD_REACTORS
330
C
102
}
330
C
100
AcDbDictionary
281
     1
  3
Normal
350
F
100
AcDbDictionaryWithDefault
340
F
  0
DICTIONARY
  5
47
102
{ACAD_REACTORS
330
C
102
}
330
C
100
AcDbDictionary
281
     1
  3
A0
350
48
  3
A1
350
49
  3
A2
350
4A
  3
A3
350
4B
  3
A4
350
4C
  3
A5
350
4D
  3
A6
350
4E
  3
A7
350
4F
  3
A8
350
50
  3
A9
350
51
  3
B0
350
52
  3
B1
350
53
  3
B2
350
54
  3
B3
350
55
  3
B4
350
56
  3
B5
350
57
  3
B6
350
58
  0
XRECORD
  5
B0
102
{ACAD_REACTORS
330
C
102
}
330
C
100
AcDbXrecord
280
     1
  1
DWGPROPS COOKIE
  2

  3

  4

  6

  7

  8
slp-0
  9

300
=
301
=
302
=
303
=
304
=
305
=
306
=
307
=
308
=
309
=
 40
0.0
 41
2460262.652665047
 42
2460262.652665348
  1

 90
        0
  0
LAYOUT
  5
1E
102
{ACAD_REACTORS
330
1A
102
}
330
1A
100
AcDbPlotSettings
  1

  2
none_device
  4

  6

 40
0.0
 41
0.0
 42
0.0
 43
0.0
 44
0.0
 45
0.0
 46
0.0
 47
0.0
 48
0.0
 49
0.0
140
0.0
141
0.0
142
1.0
143
1.0
 70
   688
 72
     1
 73
     0
 74
     5
  7

 75
    16
147
1.0
148
0.0
149
0.0
100
AcDbLayout
  1
Layout1
 70
     1
 71
     1
 10
0.0
 20
0.0
 11
420.0
 21
297.0
 12
0.0
 22
0.0
 32
0.0
 14
1.0000000000E+20
 24
1.0000000000E+20
 34
1.0000000000E+20
 15
-1.0000000000E+20
 25
-1.0000000000E+20
 35
-1.0000000000E+20
146
0.0
 13
0.0
 23
0.0
 33
0.0
 16
1.0
 26
0.0
 36
0.0
 17
0.0
 27
1.0
 37
0.0
 76
     0
330
1B
  0
LAYOUT
  5
26
102
{ACAD_REACTORS
330
1A
102
}
330
1A
100
AcDbPlotSettings
  1

  2
none_device
  4

  6

 40
0.0
 41
0.0
 42
0.0
 43
0.0
 44
0.0
 45
0.0
 46
0.0
 47
0.0
 48
0.0
 49
0.0
140
0.0
141
0.0
142
1.0
143
1.0
 70
   688
 72
     1
 73
     0
 74
     5
  7

 75
    16
147
1.0
148
0.0
149
0.0
100
AcDbLayout
  1
Layout2
 70
     1
 71
     2
 10
0.0
 20
0.0
 11
0.0
 21
0.0
 12
0.0
 22
0.0
 32
0.0
 14
0.0
 24
0.0
 34
0.0
 15
0.0
 25
0.0
 35
0.0
146
0.0
 13
0.0
 23
0.0
 33
0.0
 16
1.0
 26
0.0
 36
0.0
 17
0.0
 27
1.0
 37
0.0
 76
     0
330
23
  0
LAYOUT
  5
22
102
{ACAD_REACTORS
330
1A
102
}
330
1A
100
AcDbPlotSettings
  1

  2
none_device
  4
Letter_(8.50_x_11.00_Inches)
  6

 40
6.35
 41
6.35
 42
6.35000508
 43
6.35000508
 44
215.9
 45
279.4
 46
0.0
 47
0.0
 48
0.0
 49
0.0
140
0.0
141
0.0
142
1.0
143
1.0
 70
  1712
 72
     1
 73
     0
 74
     0
  7

 75
     0
147
1.0
148
0.0
149
0.0
100
AcDbLayout
  1
Model
 70
     1
 71
     0
 10
0.0
 20
0.0
 11
210.0
 21
297.0
 12
0.0
 22
0.0
 32
0.0
 14
0.0
 24
0.0
 34
0.0
 15
210.0
 25
297.0
 35
0.0
146
0.0
 13
0.0
 23
0.0
 33
0.0
 16
1.0
 26
0.0
 36
0.0
 17
0.0
 27
1.0
 37
0.0
 76
     0
330
1F
331
29
  0
MLINESTYLE
  5
18
102
{ACAD_REACTORS
330
17
102
}
330
17
100
AcDbMlineStyle
  2
Standard
 70
     0
  3

 62
   256
 51
90.0
 52
90.0
 71
     2
 49
0.5
 62
   256
  6
BYLAYER
 49
-0.5
 62
   256
  6
BYLAYER
  0
ACDBPLACEHOLDER
  5
F
102
{ACAD_REACTORS
330
E
102
}
330
E
  0
SCALE
  5
48
102
{ACAD_REACTORS
330
47
102
}
330
47
100
AcDbScale
 70
     0
300
1:1
140
1.0
141
1.0
290
     1
  0
SCALE
  5
49
102
{ACAD_REACTORS
330
47
102
}
330
47
100
AcDbScale
 70
     0
300
1:2
140
1.0
141
2.0
290
     0
  0
SCALE
  5
4A
102
{ACAD_REACTORS
330
47
102
}
330
47
100
AcDbScale
 70
     0
300
1:4
140
1.0
141
4.0
290
     0
  0
SCALE
  5
4B
102
{ACAD_REACTORS
330
47
102
}
330
47
100
AcDbScale
 70
     0
300
1:5
140
1.0
141
5.0
290
     0
  0
SCALE
  5
4C
102
{ACAD_REACTORS
330
47
102
}
330
47
100
AcDbScale
 70
     0
300
1:8
140
1.0
141
8.0
290
     0
  0
SCALE
  5
4D
102
{ACAD_REACTORS
330
47
102
}
330
47
100
AcDbScale
 70
     0
300
1:10
140
1.0
141
10.0
290
     0
  0
SCALE
  5
4E
102
{ACAD_REACTORS
330
47
102
}
330
47
100
AcDbScale
 70
     0
300
1:16
140
1.0
141
16.0
290
     0
  0
SCALE
  5
4F
102
{ACAD_REACTORS
330
47
102
}
330
47
100
AcDbScale
 70
     0
300
1:20
140
1.0
141
20.0
290
     0
  0
SCALE
  5
50
102
{ACAD_REACTORS
330
47
102
}
330
47
100
AcDbScale
 70
     0
300
1:30
140
1.0
141
30.0
290
     0
  0
SCALE
  5
51
102
{ACAD_REACTORS
330
47
102
}
330
47
100
AcDbScale
 70
     0
300
1:40
140
1.0
141
40.0
290
     0
  0
SCALE
  5
52
102
{ACAD_REACTORS
330
47
102
}
330
47
100
AcDbScale
 70
     0
300
1:50
140
1.0
141
50.0
290
     0
  0
SCALE
  5
53
102
{ACAD_REACTORS
330
47
102
}
330
47
100
AcDbScale
 70
     0
300
1:100
140
1.0
141
100.0
290
     0
  0
SCALE
  5
54
102
{ACAD_REACTORS
330
47
102
}
330
47
100
AcDbScale
 70
     0
300
2:1
140
2.0
141
1.0
290
     0
  0
SCALE
  5
55
102
{ACAD_REACTORS
330
47
102
}
330
47
100
AcDbScale
 70
     0
300
4:1
140
4.0
141
1.0
290
     0
  0
SCALE
  5
56
102
{ACAD_REACTORS
330
47
102
}
330
47
100
AcDbScale
 70
     0
300
8:1
140
8.0
141
1.0
290
     0
  0
SCALE
  5
57
102
{ACAD_REACTORS
330
47
102
}
330
47
100
AcDbScale
 70
     0
300
10:1
140
10.0
141
1.0
290
     0
  0
SCALE
  5
58
102
{ACAD_REACTORS
330
47
102
}
330
47
100
AcDbScale
 70
     0
300
100:1
140
100.0
141
1.0
290
     0
  0
ENDSEC
  0
EOF
